<?xml version="1.0" encoding="UTF-8" standalone="no"?>
<svg
   version="1.1"
   id="Layer_1"
   x="0px"
   y="0px"
   width="286px"
   height="94px"
   viewBox="-816 494 286 94"
   style="enable-background:new -816 494 286 94;"
   xml:space="preserve"
   xmlns="http://www.w3.org/2000/svg"
   xmlns:svg="http://www.w3.org/2000/svg"><defs
   id="defs12"><linearGradient
     id="linearGradient7"><stop
       style="stop-color:#fb0c0f;stop-opacity:1;"
       offset="0.30847803"
       id="stop7" /><stop
       style="stop-color:#df282a;stop-opacity:1;"
       offset="1"
       id="stop8" /></linearGradient><linearGradient
     id="linearGradient7-1"><stop
       style="stop-color:#f5208e;stop-opacity:1;"
       offset="0.30847803"
       id="stop5" /><stop
       style="stop-color:#e80a76;stop-opacity:1;"
       offset="1"
       id="stop6" /></linearGradient><linearGradient
     id="linearGradient5"><stop
       style="stop-color:#df282a;stop-opacity:1;"
       offset="0.19713993"
       id="stop3" /><stop
       style="stop-color:#eb591e;stop-opacity:1;"
       offset="1"
       id="stop4" /></linearGradient><linearGradient
     id="linearGradient5-1"><stop
       style="stop-color:#f2389a;stop-opacity:1;"
       offset="0.19713993"
       id="stop1" /><stop
       style="stop-color:#ed4aef;stop-opacity:1;"
       offset="1"
       id="stop2" /></linearGradient></defs>
	<style
   type="text/css"
   id="style1">
		.st0{fill:#bd93f9;}
		.st1{fill:#8e6fbb;}
		.st2{fill:#8e6fbb;}
		.st3{fill:#8be9fd;}
		.st4{fill:#69afbe;}
		.st5{fill:#69afbe;}
		.st6{stroke:#282a36;}
		.st7{stroke:#282a36;}
	</style>
	<g
   id="g12">
		<g
   id="g5">
			<g
   id="g4">
				<g
   id="g3">
					<path
   class="st0"
   d="M-769,586.5c-25.1,0-45.5-20.4-45.5-45.5s20.4-45.5,45.5-45.5s45.5,20.4,45.5,45.5S-743.9,586.5-769,586.5z      "
   id="path1"
   style="fill:#ab8aed;fill-opacity:1" />
					<g
   id="g2">
						<path
   class="st1"
   d="M-769,497c24.3,0,44,19.7,44,44s-19.7,44-44,44s-44-19.7-44-44S-793.3,497-769,497 M-769,494       c-26,0-47,21-47,47s21,47,47,47s47-21,47-47S-743,494-769,494L-769,494z"
   id="path2"
   style="fill:#7f5ac9;fill-opacity:1" />
					</g>
				</g>
				<!-- guide lines -->
				<!--
				<line class="st6" x1="-769" y1="494" x2="-769" y2="588" />
				<line class="st6" x1="-722" y1="541" x2="-816" y2="541" />
				<line class="st6" x1="-735.8" y1="507.8" x2="-802.2" y2="574.2" />
				<line class="st6" x1="-735.8" y1="574.2" x2="-802.2" y2="507.8" />
				-->
				<circle
   class="st2"
   cx="-769"
   cy="541"
   r="27.3"
   id="circle3"
   style="fill:#856db6;fill-opacity:1" />
			</g>
		</g>
		<g
   id="g8">
			<g
   id="g7">
				<path
   class="st3"
   d="M-673,586.5c-25.1,0-45.5-20.4-45.5-45.5s20.4-45.5,45.5-45.5s45.5,20.4,45.5,45.5S-647.9,586.5-673,586.5z"
   id="path5"
   style="fill:#fdf7fa;fill-opacity:1" />
				<g
   id="g6">
					<path
   class="st4"
   d="M-673,497c24.3,0,44,19.7,44,44s-19.7,44-44,44s-44-19.7-44-44S-697.3,497-673,497 M-673,494      c-26,0-47,21-47,47s21,47,47,47s47-21,47-47S-647,494-673,494L-673,494z"
   id="path6"
   style="fill:#39bcc4;fill-opacity:1" />
				</g>
			</g>
			<!-- guide lines -->
			<!--
			<line class="st7" x1="-673" y1="494" x2="-673" y2="588" />
			<line class="st7" x1="-626" y1="541" x2="-720" y2="541" />
			<line class="st7" x1="-639.8" y1="507.8" x2="-706.2" y2="574.2" />
			<line class="st7" x1="-639.8" y1="574.2" x2="-706.2" y2="507.8" />
			-->
			<circle
   class="st5"
   cx="-673"
   cy="541"
   r="27.3"
   id="circle7"
   style="fill:#12dfeb;fill-opacity:1" /><g
   id="g24"
   transform="matrix(0.30604437,0,0,0.30604437,-898.93984,582.02744)"
   style="display:none"><g
     id="g23"
     transform="matrix(2.0152535,0,0,2.0152535,1054.6095,-210.87294)"><g
       id="g20"
       transform="translate(-230.80487,-32.631947)"
       style="display:inline"><path
         style="display:inline;opacity:1;fill:#000000;fill-opacity:1;stroke:#000000;stroke-width:0.5;stroke-opacity:1"
         d="m 253.90593,407.37173 c -4.82841,-1.27852 -8.23684,-2.81847 -8.73126,-2.01848 -0.19264,0.3117 -1.76756,-0.27106 -1.33921,-0.10668 0.42835,0.16437 0.43336,1.29578 0.28121,1.54196 -0.52622,0.85146 -3.73989,1.81271 -5.85831,0.57123 -1.16976,-0.68552 -3.96605,-0.8498 -5.45776,-1.12127 -2.83681,-0.51625 -4.4529,-1.30739 -21.8461,-10.43928 -15.04387,-7.89843 -20.37146,-12.50272 -30.86244,-22.56177 -10.45447,-10.02402 -17.90631,-19.84506 -26.42312,-34.63389 -2.13801,-3.7125 -5.12356,-7.1663 -6.0944,-8.53935 -3.35153,-4.74004 -6.14873,-13.62307 -9.91015,-28.28387 -2.23824,-8.72392 -3.06612,-15.13896 -3.07698,-27.35355 -0.0135,-15.16459 1.19891,-29.68374 3.68216,-37.75369 0.78107,-2.53826 1.20157,-7.53197 1.7987,-10.55697 1.9547,-9.9024 9.70813,-25.97818 17.6072,-37.69504 2.33637,-3.46559 5.64333,-7.96766 6.48456,-9.57249 1.63769,-3.12425 4.95168,-7.40013 17.32755,-18.61927 8.33697,-7.55773 13.68451,-10.65225 19.02644,-13.63857 2.11031,-1.17973 7.19113,-4.03119 11.07464,-6.33656 8.1143,-4.8169 9.80499,-5.93282 22.76229,-9.71808 10.96768,-3.20403 16.10094,-4.56998 22.59343,-5.24321 2.56981,-0.26648 6.08495,-0.34511 8.89173,-0.93094 4.37339,-0.91282 6.7757,-1.01955 12.56034,-0.74633 11.34199,0.53571 27.56808,2.50115 36.41635,4.74843 15.70246,3.9881 37.29753,13.48869 49.0277,22.32619 5.42309,4.08574 16.61111,14.52744 22.57127,20.96891 9.99063,10.79742 14.04035,17.54458 20.18332,29.80352 8.64041,17.24285 13.08021,32.13163 15.88232,53.57553 1.92877,14.76048 1.86267,26.81652 -1.81754,45.0347 0.55063,-2.03494 -1.29319,4.8185 -4.11977,12.14577 -0.33988,0.88107 -0.57495,2.68433 -1.45929,4.96072 -1.51119,3.88999 -2.0639,4.84056 -2.89276,6.47764 -3.16012,6.24155 1.37318,3.26721 -11.62597,22.53109 -4.67942,6.9346 -18.17598,20.73912 -22.18642,23.59949 -1.27157,0.90692 -3.69612,1.45364 -5.21015,0.90616 -1.54441,-0.55847 -6.05055,3.63498 -7.48972,1.73494 -2.81519,-3.7167 0.1263,-0.99236 7.80449,-11.52247 2.30599,-3.1625 3.97942,-6.34576 4.21526,-6.95934 0.23585,-0.61358 3.13581,-5.08858 6.1388,-9.5625 8.75219,-13.0392 13.73003,-23.16413 17.90283,-35.42341 3.16627,-9.30216 3.37661,-16.09932 4.51183,-29.26971 0.90116,-10.45492 1.75645,-12.02562 1.26447,-18.36611 -0.67483,-8.69692 -2.80327,-19.77722 -4.83087,-27.66357 -3.3629,-13.08001 -12.23858,-30.82805 -21.64502,-43.91158 -4.94942,-6.88421 -20.12741,-20.92356 -28.70523,-27.02444 -7.66271,-5.45002 -22.29167,-12.19033 -33.6859,-16.43027 -8.9946,-3.347 -21.49738,-6.01292 -35.98484,-6.59355 -16.09456,-0.64505 -38.2025,3.3373 -47.38271,7.98687 -1.88552,0.95497 -5.93546,2.40422 -7.48744,2.68041 -7.40389,1.31761 -24.02441,11.53602 -36.77422,22.68626 -9.53383,8.33774 -22.60476,25.40517 -29.64305,38.72438 -1.80085,3.40792 -2.21603,7.52977 -3.0646,10.8113 -0.71113,2.75 -2.77998,7.43874 -3.73321,9.98729 -2.04416,5.46528 -3.05529,12.93508 -3.88266,21.19973 -0.91016,9.09177 -1.06368,29.87718 0.28734,37.76075 3.35778,19.59341 9.9552,33.47074 21.15283,48.94347 10.80727,14.93335 27.02011,31.81966 40.36294,40.09548 6.87784,4.26594 32.85998,16.15937 36.83261,17.38639 4.53455,1.40058 13.83758,2.74556 23.4623,2.80028 9.59898,0.0546 11.19552,-0.74481 18.5084,-1.30395 4.31877,-0.3302 9.45619,0.13896 10.10485,0.0895 19.36333,-1.47659 35.39671,-11.06991 52.26236,-18.63459 -8.68411,6.51937 -17.76671,12.53157 -28.2704,16.7351 l -23.33203,4.27993 c -0.72711,0.13338 -4.12031,1.25799 -6.91292,1.50636 -4.65057,0.41361 -5.16689,0.17439 -9.09134,2.66563 l -4.32322,2.74437 -9.26647,0.29753 c -4.53565,0.14563 -9.01151,-0.49215 -10.46967,-0.0298 -2.84301,1.25283 -5.23093,-0.97853 -8.09537,-1.74268 z m 136.63095,-55.64534 0.31567,1.7477 2.03324,-2.75199 c 4.57709,-6.19509 3.84488,-6.58508 2.62899,-7.38139 -0.53655,-0.3514 -1.16566,0.75921 -1.98007,1.62742 -1.37976,1.47091 -3.0955,3.36891 -2.99783,6.75826 z"
         id="path18"
         transform="scale(0.26458333)" /><path
         style="display:inline;fill:#000000;stroke-width:1;stroke-dasharray:none"
         d="m -168.13894,75.84505 c -0.55576,-0.289846 -1.22757,-0.526993 -1.49291,-0.526993 -0.7085,0 -6.3523,-2.662806 -6.64393,-3.134677 -0.13705,-0.221751 -0.86102,-0.715319 -1.60882,-1.096818 -0.7478,-0.381499 -2.30606,-1.569856 -3.4628,-2.640792 -2.13117,-1.973089 -2.68566,-2.507452 -1.76231,-1.123678 0.79838,1.1965 0.72854,0.966137 -0.40135,0.253576 -0.48767,-0.30755 -0.533,-0.900344 -0.61024,-1.100498 -0.15615,-0.404666 -0.643,-0.994472 -1.70811,-1.904428 -1.06511,-0.909955 -1.93657,-1.908383 -1.93657,-2.218729 0,-0.790247 -2.40451,-4.196377 -3.44249,-4.876487 -0.63262,-0.414509 -0.81756,-0.792417 -0.69684,-1.423929 0.0904,-0.472816 -0.0294,-0.974725 -0.26611,-1.115353 -0.73453,-0.436315 -1.35967,-1.896812 -2.22343,-5.194577 -1.39348,-5.320147 -1.62094,-7.843127 -1.20513,-13.36681 0.24432,-3.245627 0.62377,-5.687249 1.09049,-7.017002 0.39368,-1.121652 0.63309,-2.254859 0.53202,-2.518238 -0.20615,-0.537214 1.84393,-6.072003 2.56888,-6.935451 0.25719,-0.30632 0.46761,-0.802195 0.46761,-1.101944 0,-0.299749 0.64384,-1.239749 1.43075,-2.088889 0.78691,-0.849139 1.637,-2.024063 1.88907,-2.610941 0.25208,-0.586878 1.03593,-1.539378 1.7419,-2.116666 0.70597,-0.577289 2.23655,-1.953063 3.4013,-3.0572748 2.74538,-2.6027062 8.65322,-6.1054043 11.8217,-7.0089718 1.3582,-0.3873207 2.9457,-0.8725982 3.52778,-1.07839426 2.69297,-0.95210242 4.27275,-1.13806471 9.70139,-1.14198902 6.37785,-0.00461 8.67574,0.36532756 13.73241,2.21078448 1.59887,0.5835121 3.92775,1.6317522 5.1753,2.3294226 3.24253,1.8133278 7.49662,5.1048011 9.76648,7.5565158 2.47672,2.675151 5.53269,7.256839 6.96034,10.435352 3.89624,8.674547 4.61618,19.914172 1.79991,28.099815 -2.16638,6.296692 -7.7202,14.236317 -11.29767,16.150922 -0.60882,0.32583 -0.73677,0.293209 -0.73677,-0.187846 0,-0.53766 -0.0665,-0.538608 -0.86953,-0.01241 -0.47824,0.313357 -1.13045,0.56974 -1.44936,0.56974 -0.92933,0 -0.30229,-1.734647 1.17957,-3.263195 0.70538,-0.727604 1.11615,-1.322916 0.91282,-1.322916 -0.20334,0 -0.67034,0.332204 -1.03779,0.738231 -0.8795,0.971833 -1.91071,1.525527 -1.91071,1.025927 0,-0.207532 1.04239,-1.364055 2.31641,-2.570051 2.08599,-1.974603 4.55555,-5.327297 5.45754,-7.409203 0.18604,-0.429406 0.48615,-1.018863 0.66691,-1.309905 1.70987,-2.753032 2.73714,-6.847043 3.06258,-12.205453 0.38091,-6.271579 -0.93742,-12.776367 -3.41175,-16.833961 -0.56987,-0.934524 -1.03613,-1.788689 -1.03613,-1.898145 0,-0.109456 -0.55563,-0.9724 -1.23473,-1.917654 -0.67909,-0.945254 -1.23472,-1.847172 -1.23472,-2.004262 0,-0.15709 -0.47625,-0.637725 -1.05833,-1.068078 -0.58208,-0.430353 -1.05833,-0.93687 -1.05833,-1.125594 0,-0.40086 -2.10003,-2.34165 -4.90276,-4.531008 -2.084,-1.6279185 -7.38673,-4.304335 -9.74885,-4.9204777 -3.71015,-0.967768 -5.8679,-1.2583707 -9.47505,-1.2760842 -4.63809,-0.022776 -8.93049,0.6690112 -11.20236,1.8054377 -0.9013,0.4508471 -1.82138,0.819722 -2.04463,0.819722 -0.22324,0 -1.15142,0.3968751 -2.06263,0.8819445 -0.9112,0.4850695 -1.81674,0.8863609 -2.01231,0.8917588 -0.50117,0.013832 -2.76159,1.7540699 -5.61479,4.3226699 -2.26053,2.035047 -5.45195,6.000803 -7.06507,8.77927 -0.80243,1.382107 -2.60492,6.21244 -3.0716,8.231302 -0.79353,3.432785 -1.05418,7.780576 -0.66621,11.112501 0.63809,5.479991 1.5066,8.254589 3.98446,12.729032 1.79067,3.233534 2.88176,4.711162 5.2299,7.08266 4.67144,4.717911 6.65911,6.01602 15.51079,10.129815 2.80792,1.30497 7.4338,1.472766 14.55605,0.527996 2.29301,-0.304169 4.25176,-0.470394 4.35276,-0.369389 0.10101,0.101006 1.18708,-0.194047 2.41351,-0.655671 2.00115,-0.753231 8.15508,-3.732156 7.75836,-3.332736 -0.39147,0.414971 -5.24,3.774081 -5.54082,3.927019 -0.78982,0.401549 -1.8023,0.702442 -3.45153,1.212147 -1.64924,0.509705 -3.30875,1.09018 -3.6878,1.289944 -0.37905,0.199765 -1.33697,0.390505 -2.12871,0.423866 -1.56961,0.06614 -1.77268,0.371625 -2.1215,0.901163 -0.21018,0.319071 -0.71163,0.303203 -1.81043,0.303203 -1.0988,0 -3.16439,0.109316 -4.59019,0.242925 -2.10127,0.196904 -2.75967,0.133306 -3.47548,-0.335712 -0.77284,-0.506381 -0.88312,-0.511543 -0.88312,-0.04134 0,0.715886 -2.28792,0.719615 -3.65629,0.006 z m 2.12759,-0.4094 c -0.12935,-0.129352 -0.34102,-0.129352 -0.47037,0 -0.12935,0.129351 -0.0235,0.235185 0.23519,0.235185 0.2587,0 0.36453,-0.105834 0.23518,-0.235185 z m 1.17593,0.07962 c 0,-0.08556 -0.15875,-0.253682 -0.35278,-0.373598 -0.19403,-0.119916 -0.35278,-0.04991 -0.35278,0.155569 0,0.205479 0.15875,0.373598 0.35278,0.373598 0.19403,0 0.35278,-0.07001 0.35278,-0.155569 z m 10.58333,0 c 0,-0.08556 -0.23289,-0.310182 -0.45689,-0.448626 -0.25235,-0.155956 -0.26192,-0.05543 -0.10596,0.19691 0.25133,0.406665 0.56285,0.545982 0.56285,0.251716 z m -12.40584,-0.960137 c -0.59799,-0.396452 3.1837,0.03555 4.00418,0.457423 0.32679,0.168028 1.88925,0.305505 3.47213,0.305505 2.34379,0 3.04445,-0.130957 3.77493,-0.705556 0.56282,-0.44271 1.4378,-0.707568 2.3487,-0.710957 0.79846,-0.003 1.68986,-0.15929 1.9809,-0.347376 0.40434,-0.261302 0.27951,-0.337905 -0.52917,-0.324726 -1.106,0.01802 -5.68501,0.56028 -4.91684,0.620378 0.99983,0.07822 2.00249,0.0096 0.95438,0.148785 -0.42672,0.03214 -1.71938,0.483779 -1.6109,0.201068 0.13256,-0.345439 -0.73408,-0.23424 -3.51535,-0.376189 -2.94389,-0.150248 -4.0647,-0.370773 -5.75059,-1.131462 -1.15172,-0.519662 -2.33216,-1.097842 -2.6232,-1.284844 -0.29104,-0.187002 -1.56104,-0.844535 -2.82222,-1.461185 -3.62243,-1.771175 -6.26685,-3.731331 -9.64806,-7.151548 -7.28564,-7.369682 -10.3524,-14.981741 -10.16815,-25.238467 0.0689,-3.835899 0.6533,-7.354654 1.57942,-9.510145 0.29177,-0.679097 0.61165,-1.753544 0.71083,-2.38766 0.35141,-2.246822 4.75613,-8.792952 8.17735,-12.152874 3.09253,-3.037116 9.31808,-6.9789115 11.02228,-6.9789115 0.35133,0 0.96136,-0.225941 1.35562,-0.5020911 1.01847,-0.7133621 4.35863,-1.5032371 8.2596,-1.9532114 3.71287,-0.4282771 8.7243,-0.067717 12.48065,0.8979494 2.82646,0.7266153 8.70615,3.5847889 11.15546,5.4227756 2.22258,1.66784 5.69407,4.965236 6.93574,6.587909 2.10673,2.753158 4.53001,7.303151 5.61189,10.536947 1.20274,3.595063 2.01024,9.353129 1.73156,12.347223 -0.0722,0.776111 -0.21054,2.442986 -0.30734,3.704167 -0.33487,4.362886 -2.78451,10.43846 -6.07061,15.056272 -0.85318,1.198935 -1.55124,2.285429 -1.55124,2.414431 0,0.129001 -0.71437,1.173889 -1.5875,2.321974 -0.87312,1.148084 -1.5875,2.183285 -1.5875,2.300447 0,0.117162 0.4075,-0.05398 0.90556,-0.380319 0.66304,-0.434445 1.0284,-0.491386 1.36428,-0.212625 0.35107,0.291359 0.99718,-0.190057 2.75281,-2.051121 1.26174,-1.33751 2.8002,-3.167467 3.4188,-4.06657 1.63221,-2.372335 3.26887,-5.813792 2.98404,-6.274649 -0.13905,-0.224991 -0.0885,-0.300323 0.11646,-0.173634 0.39595,0.244706 1.7223,-2.843102 1.3718,-3.193602 -0.11756,-0.117564 -0.2249,0.09052 -0.23854,0.462405 -0.0236,0.644571 -0.0379,0.643198 -0.30463,-0.0294 -0.15391,-0.388056 -0.17268,-0.784931 -0.0417,-0.881944 0.13096,-0.09701 0.42313,-0.732014 0.64926,-1.411112 l 0.52691,-1.978863 -0.27826,2.155252 c -0.14374,1.113327 -0.0924,1.245423 0.17181,0.621002 0.18387,-0.434559 0.59876,-2.577685 0.92196,-4.7625 0.50745,-3.430312 0.5283,-4.501938 0.15279,-7.852947 -0.23917,-2.134305 -0.81248,-5.339817 -1.27404,-7.123359 -0.95057,-3.673206 -3.09804,-8.445075 -5.20855,-11.573864 -1.93687,-2.871375 -7.30455,-8.1874639 -10.10741,-10.010265 -3.46127,-2.2509826 -7.70931,-4.1820474 -11.36173,-5.1647794 -3.9995,-1.07612191 -11.13124,-1.77810025 -12.7462,-1.25461128 -0.61363,0.19890822 -1.98881,0.42206062 -3.05596,0.49589422 -1.06716,0.0738336 -2.97216,0.46814056 -4.23334,0.87623756 -1.26118,0.4080971 -2.94489,0.9065772 -3.74158,1.1077336 -0.79669,0.2011563 -2.02759,0.7587018 -2.73533,1.23899 -0.70774,0.4802881 -2.27269,1.3935747 -3.47766,2.0295257 -1.20498,0.635951 -2.99033,1.922334 -3.96745,2.8586288 -0.97712,0.9362948 -2.60069,2.4090348 -3.60793,3.2727548 -1.00724,0.863721 -1.94324,1.923286 -2.08,2.354591 -0.13676,0.431304 -0.79559,1.498564 -1.46407,2.371689 -1.7525,2.289011 -4.29466,7.698017 -4.65992,9.915019 -0.17244,1.04667 -0.47558,2.324231 -0.67363,2.839022 -0.9275,2.410768 -1.35363,8.728776 -0.95999,14.23346 0.1393,1.948005 2.24619,9.034734 2.90122,9.758537 0.29471,0.32565 0.87989,1.228007 1.30039,2.005239 0.42051,0.777233 1.47894,2.554083 2.35206,3.948558 2.42492,3.872853 7.55212,8.801997 11.0623,10.634965 0.99775,0.521013 2.60784,1.358142 3.57798,1.860287 0.97014,0.502144 2.16076,1.145083 2.64583,1.428752 0.48507,0.283669 1.19945,0.523152 1.5875,0.532183 0.38806,0.009 0.9988,0.238592 1.35721,0.510137 0.35841,0.271544 0.88766,0.403153 1.17611,0.292464 0.42847,-0.16442 0.43834,-0.258346 0.0539,-0.513215 z m 39.11166,-14.172071 c -0.0994,-0.25911 0.14674,-0.988398 0.54705,-1.620639 0.60459,-0.954895 0.7806,-1.05523 1.03951,-0.592588 0.21597,0.385923 0.0702,0.883565 -0.47475,1.620639 -0.43253,0.585033 -0.81896,1.063698 -0.85873,1.063698 -0.0398,0 -0.15365,-0.212 -0.25308,-0.47111 z m 0.85585,-0.851807 c 0.43881,-0.559525 0.42633,-0.572003 -0.1332,-0.133193 -0.58764,0.460858 -0.77451,0.750554 -0.48416,0.750554 0.0732,0 0.35106,-0.277813 0.61736,-0.617361 z m 0.66055,-0.970139 c 0,-0.09701 -0.0794,-0.176389 -0.17639,-0.176389 -0.097,0 -0.17638,0.07937 -0.17638,0.176389 0,0.09701 0.0794,0.176389 0.17638,0.176389 0.097,0 0.17639,-0.07937 0.17639,-0.176389 z m 3.88056,-6.879167 c 0,-0.258704 0.10583,-0.364537 0.23518,-0.235185 0.12936,0.129352 0.12936,0.341018 0,0.47037 -0.12935,0.129352 -0.23518,0.02352 -0.23518,-0.235185 z M -122.50209,50.8 c 0,-0.09701 0.0794,-0.176388 0.17639,-0.176388 0.097,0 0.17639,0.07937 0.17639,0.176388 0,0.09701 -0.0794,0.176389 -0.17639,0.176389 -0.097,0 -0.17639,-0.07937 -0.17639,-0.176389 z m 0.57275,-0.366416 c -0.34042,-0.887128 -0.24,-1.116031 0.17587,-0.400874 0.20591,0.354101 0.30007,0.718135 0.20924,0.808964 -0.0908,0.09083 -0.26413,-0.09281 -0.38511,-0.40809 z m -27.29567,22.534168 c -0.24253,-0.09786 -0.63941,-0.09786 -0.88194,0 -0.24254,0.09786 -0.0441,0.177936 0.44097,0.177936 0.48507,0 0.68351,-0.08007 0.44097,-0.177936 z m 1.93293,-0.332276 c -0.11722,-0.117225 -0.42149,-0.129758 -0.67616,-0.02785 -0.28142,0.112616 -0.19782,0.196209 0.21314,0.213137 0.37189,0.01532 0.58025,-0.06806 0.46302,-0.185287 z m 1.73377,-0.419785 c -0.36016,-0.07634 -0.80876,0.01512 -0.99689,0.203253 -0.22089,0.220887 0.0111,0.270055 0.65483,0.138802 0.73835,-0.15054 0.82706,-0.239251 0.34206,-0.342055 z m 1.23794,-0.319512 c -0.27295,-0.434923 -0.25332,-0.05919 -0.38268,0.07016 -0.12935,0.129352 -0.32751,0.638594 0.17673,0.182565 0.19187,-0.173525 0.41815,0.0854 0.20595,-0.252725 z m 0.90517,-0.439385 c -0.12092,-0.252555 0.4663,-0.540191 0.36931,-0.540191 -0.097,0 -0.74689,0.426636 -0.74689,0.523655 0,0.09701 -0.27618,0.73036 0.82958,0.192925 0.0872,-0.0424 -0.28696,0.168296 -0.452,-0.176389 z m 6.14616,-3.2967 c 0.11964,-0.138385 -1.71825,1.019446 -1.8476,1.148798 -0.12935,0.129352 -3.96061,1.953002 -3.50205,2.079 0.26072,0.07164 5.11651,-2.958129 5.34965,-3.227798 z m 5.59473,-6.423982 c 0,-0.09701 -0.0794,-0.176389 -0.17639,-0.176389 -0.097,0 -0.17639,0.07937 -0.17639,0.176389 0,0.09701 0.0794,0.176389 0.17639,0.176389 0.097,0 0.17639,-0.07937 0.17639,-0.176389 z m -59.1391,-5.291667 c -0.11168,-0.291042 -0.26545,-0.529167 -0.3417,-0.529167 -0.0763,0 -0.13865,0.238125 -0.13865,0.529167 0,0.291042 0.15377,0.529167 0.34171,0.529167 0.18794,0 0.25033,-0.238125 0.13864,-0.529167 z m 55.06353,10.084298 c 0.10968,-0.177456 0.0357,-0.403675 -0.16439,-0.502708 -0.20008,-0.09903 -0.17131,-0.142359 0.0639,-0.09628 0.55944,0.10958 0.82732,0.921632 0.30403,0.921632 -0.22165,0 -0.31326,-0.145191 -0.20359,-0.322647 z m -1.33063,-0.967811 c -0.29601,-0.296014 0.42592,-1.182433 0.95148,-1.168259 0.21878,0.0059 0.11662,0.174407 -0.22701,0.37446 -0.34363,0.200052 -0.53269,0.512725 -0.42015,0.694828 0.23489,0.380063 0.0401,0.443408 -0.30432,0.09897 z"
         id="path19"
         transform="translate(230.80487,32.631947)" /><path
         d="m -121.27057,35.631809 c -0.13406,-2.993703 -1.52223,-8.892022 -1.27666,-8.898999 0.22979,-0.0065 1.66331,5.757396 1.82672,8.723947 0.22837,4.145847 -1.03536,12.404363 -1.19833,12.398622 -0.27922,-0.0098 0.83081,-8.147406 0.64827,-12.22357 z m 1.15501,5.102884 c -0.11478,1.371081 -0.86704,5.59536 -1.12871,5.53982 -0.11047,-0.02345 0.66328,-3.818498 0.74887,-5.497819 0.0856,-1.679321 0.0284,-4.775665 0.14456,-4.813566 0.11616,-0.0379 0.41864,2.58142 0.23528,4.771565 z M -133.73937,9.6710524 c -1.61153,-1.4603665 -3.30525,-2.2669102 -3.05968,-2.2738872 0.22979,-0.0065 2.18245,0.6695302 3.62177,2.0400263 2.95312,2.8119005 2.43146,2.5777085 2.12817,2.5018095 -0.27922,-0.0098 0.33055,0.469502 -2.69026,-2.2679486 z m 9.38703,46.3883896 c -0.11478,1.371081 1.65977,-3.868379 1.77593,-3.90628 0.11616,-0.0379 -1.59257,1.716135 -1.77593,3.90628 z"
         style="display:inline;fill:#fdf7fa;fill-opacity:1"
         id="path20"
         transform="translate(230.80487,32.631947)" /></g><g
       id="g22"
       transform="translate(-230.80487,-32.631947)"><path
         style="display:inline;fill:#000000;fill-opacity:1;stroke:#000000;stroke-width:0.5;stroke-opacity:1"
         d="m 422.65965,454.89214 c -1.25693,-0.33891 -3.61338,-1.47289 -4.83145,-2.19588 -5.46753,-3.24528 -14.194,-12.94932 -24.96093,-24.5133 -2.45966,-2.64175 -5.62517,-4.19609 -6.49429,-4.64242 -1.09178,-0.56067 -2.3492,-1.25896 -6.78465,-1.46885 -8.19939,-0.388 -12.47732,-1.55427 -14.83452,-4.01208 -1.00047,-1.04318 -3.67815,-6.1034 -6.46353,-10.75881 -2.78539,-4.6554 -7.01213,-11.17568 -9.66444,-14.86873 -2.6523,-3.69304 -6.55099,-8.10159 -7.39904,-9.70456 -3.64407,-6.88802 -31.32215,-34.31896 -44.72456,-44.38024 -1.86757,-1.402 -3.58626,-3.94985 -3.73906,-4.55594 -0.40686,-1.61372 2.63461,-8.13285 4.66058,-10.99464 4.65099,-6.56977 5.62019,-7.95313 6.0816,-10.42415 0.77128,-4.13057 1.86578,-10.9531 2.67427,-14.74754 1.1101,-5.20996 0.77697,-18.53491 -0.85751,-27.9375 -4.02564,-23.15818 -12.82082,-46.24188 -23.33979,-62.1875 -4.9955,-7.57263 -9.72533,-12.93881 -19.18457,-22.84035 -4.44796,-4.65594 -9.14756,-10.02189 -10.21438,-11.466 -3.17983,-4.30436 -15.1432,-13.49892 -23.39629,-18.22909 -16.61246,-9.52125 -47.80144,-16.00509 -78.43709,-17.58566 -9.29948,-0.47978 -4.99931,-0.53306 -5.0041,-11.76342 -0.008,-19.07793 -3.09435,-27.808603 -10.53196,-43.457944 -2.09967,-4.417895 -4.0142,-9.270036 -4.48367,-10.782536 -0.58008,-1.868849 -1.54685,-2.443793 -2.35443,-2.854814 -1.60903,-0.818927 -4.61981,-4.336391 -5.48558,-5.997337 -0.69245,-1.328448 -0.79953,-3.170331 0.89718,-3.488637 2.36898,-0.444424 15.7598,0.91672 21.95684,2.112626 5.31506,1.0257 10.65086,2.891849 15.31822,4.984596 1.5125,0.678172 6.26031,1.804557 9.93959,2.961409 3.67927,1.156853 8.76677,2.793321 11,3.865762 2.23323,1.072441 6.14791,2.853778 8.62291,3.423804 6.21033,1.430322 8.96077,2.704897 15.13454,6.383762 2.92713,1.744231 4.24374,3.983829 4.68276,3.983829 0.43901,0 2.75659,0.344883 3.92795,1.606685 1.17137,1.261801 4.09974,2.501413 5.51446,3.136636 4.85759,2.181123 16.54483,11.022989 27.45467,20.377799 8.22821,7.05541 21.19109,22.24039 35.19479,40.49274 3.34585,4.36097 7.14274,9.37608 8.43752,10.92864 1.29478,1.55255 4.03358,4.6595 5.54608,7.33645 1.5125,2.67694 4.19279,6.44505 5.84816,8.26555 3.85533,4.23992 4.54641,5.56449 8.8755,12.66136 13.53108,22.18213 21.25866,42.15385 25.61506,63.76736 2.67538,13.27347 2.90314,22.81808 1.66783,41.94898 -0.97051,15.02997 0.0732,19.33192 2.43271,25.43018 1.03164,2.66636 1.83138,4.80301 2.3501,5.27245 0.51873,0.46944 1.50132,1.42872 2.93976,1.91568 2.82617,0.95675 7.48028,1.91091 -1.88511,2.92229 -3.99797,0.43174 -6.97901,1.10546 -7.52672,2.12887 -0.84487,1.57865 0.78323,4.02671 5.82889,9.69796 5.46409,6.14155 18.04276,17.8142 24.06514,22.82986 9.58068,7.97914 25.75009,16.03051 30.71076,16.03051 7.40582,0 1.63945,15.75983 5.56139,21.40168 2.88487,4.14996 17.13554,17.10245 22.24113,20.50495 2.41195,1.60739 3.63511,1.14497 6.51572,-0.25453 1.21567,-0.59062 2.81977,-0.12215 3.24902,0.0426 1.13246,0.43456 3.18594,4.68658 4.2984,9.03626 1.07855,4.2171 0.61071,9.31447 -0.18016,12.16238 -0.94519,3.40365 -8.97596,9.51457 -11.72736,9.36973 -0.35258,-0.0186 -3.48141,-0.53233 -4.73834,-0.87091 z M 173.35945,132.47068 c 1.2057,-2.25288 -0.51158,-3.53922 -3.72629,-4.88241 -0.89776,-0.37511 -0.98952,-1.09171 -2.3046,-1.09592 -2.90157,-0.009 -4.18147,-0.24774 -5.54731,-0.2078 -2.72615,0.0797 -8.57149,4.08451 -3.22465,5.84913 1.55748,0.51401 8.1789,0.56339 11.51956,0.68352 1.1488,0.0413 2.88958,0.38913 3.28329,-0.34652 z M 151.92551,72.103553 c -0.6875,-0.645872 -1.55936,-2.331103 -1.55936,-2.988745 0,-3.038391 -0.97009,-3.831073 -7.59823,-4.986924 -6.74894,-1.176917 -7.6938,-1.373944 -6.16243,1.776829 1.56133,3.212415 2.95212,4.245301 4.61885,4.83837 1.62843,0.438489 2.99277,1.409902 5.33436,3.79805 1.73046,1.764877 3.68094,2.148207 4.11832,2.148207 2.42505,-1.115681 2.50922,-2.727222 1.24849,-4.585787 z"
         id="path21"
         transform="scale(0.26458333)" /><path
         style="display:inline;fill:#000000"
         d="m -120.83109,87.170529 c -0.96755,-0.660169 -3.16495,-2.644544 -4.88312,-4.409722 l -3.12394,-3.209416 h -2.36631 c -2.13257,0 -2.45337,-0.09583 -3.2477,-0.970138 -0.48477,-0.533577 -1.06662,-1.406556 -1.29301,-1.939954 -0.5848,-1.377835 -3.44653,-5.659259 -4.29734,-6.429239 -0.3937,-0.356289 -0.71581,-0.783319 -0.71581,-0.948955 0,-0.711193 -2.2353,-3.249359 -6.36536,-7.227827 -2.43379,-2.344461 -4.9341,-4.525885 -5.55625,-4.847609 -0.91884,-0.475152 -1.13093,-0.798465 -1.12985,-1.722421 7.2e-4,-0.625608 0.34166,-1.693094 0.75763,-2.372191 1.69473,-2.76674 2.08011,-3.624534 1.89308,-4.213784 -0.10791,-0.340014 0.044,-1.078822 0.3376,-1.641795 1.65204,-3.167864 -0.41491,-14.01785 -4.05929,-21.308311 -1.83016,-3.661175 -3.77576,-6.134131 -9.03932,-11.489454 -4.02715,-4.097344 -4.86699,-4.7747038 -7.54842,-6.0880583 -4.79504,-2.348595 -11.79467,-3.8772982 -18.43739,-4.0266838 -1.68495,-0.037892 -3.07088,-0.1533872 -3.07985,-0.2566555 -0.009,-0.1032682 -0.0646,-2.0927605 -0.12373,-4.42109395 -0.0888,-3.49895195 -0.27586,-4.73272885 -1.07831,-7.11209195 -0.6855,-2.0325687 -1.16804,-2.9303165 -1.64161,-3.0541595 -0.42408,-0.110899 -0.59535,-0.371864 -0.46573,-0.709648 0.24879,-0.648323 -0.31941,-1.786697 -1.66494,-3.335682 -1.2875,-1.482177 -1.33792,-2.801542 -0.11877,-3.107532 1.20922,-0.303493 6.08466,0.444844 8.55571,1.313225 1.11195,0.390767 3.05361,1.040269 4.31479,1.443337 1.26118,0.403069 2.68993,1.004685 3.175,1.336925 0.48507,0.33224 1.59632,0.683603 2.46945,0.780807 1.10927,0.123493 2.26435,0.643041 3.83433,1.724665 1.23575,0.851363 2.82325,1.8411615 3.52778,2.1995534 0.70452,0.3583919 1.67782,1.001746 2.16289,1.429676 0.48507,0.4279299 1.58589,1.2459502 2.44628,1.817823 2.09483,1.3923724 6.56618,5.801503 6.87723,6.7815306 0.13697,0.4315449 0.38303,0.7846271 0.54679,0.7846271 0.32125,0 5.29914,6.1153344 5.29914,6.5099835 0,0.1310899 0.46819,0.6322997 1.04042,1.1137996 0.57223,0.4814998 1.45001,1.7412508 1.95061,2.7994468 0.50061,1.058196 1.14367,1.923993 1.42903,1.923993 0.28536,0 0.51883,0.135569 0.51883,0.301264 0,0.165695 0.35719,0.702815 0.79375,1.193599 1.69444,1.904895 6.19061,11.437193 6.96398,14.764302 0.24404,1.04989 0.57571,2.305766 0.73703,2.790836 0.16133,0.485069 0.40139,1.675694 0.53348,2.645833 0.13208,0.970139 0.36333,2.094761 0.51388,2.499161 0.15055,0.404399 0.12416,2.547524 -0.0587,4.7625 -0.55063,6.671664 -0.51618,7.758395 0.29564,9.324582 0.60509,1.167364 1.00966,1.490424 2.29801,1.835003 0.99637,0.26649 1.56362,0.616373 1.56362,0.964453 0,0.418253 -0.42019,0.552056 -1.79328,0.571041 -3.66582,0.05069 -3.64671,0.138198 1.03045,4.719432 4.64128,4.546087 8.61707,7.29692 9.49418,6.568985 0.37847,-0.314109 1.45049,-1.183716 1.18141,-0.914024 -0.46972,0.470775 -1.01559,1.053966 -1.04984,1.423523 -0.0203,0.219349 0.2514,0.239197 0.9232,0.365228 1.89694,0.355869 2.48544,1.255437 2.4178,3.695836 l -0.0577,2.081022 3.24178,3.024985 c 1.78298,1.663742 3.29664,2.860412 3.36369,2.659267 0.067,-0.201146 0.64019,-0.365719 1.27365,-0.365719 0.99687,0 1.22652,0.177891 1.70778,1.322916 1.2636,3.006386 0.97189,5.420891 -0.83904,6.944687 -1.54883,1.303254 -3.22565,1.212035 -5.43538,-0.295688 z m 5.015,-0.632785 c 0.96902,-0.939216 1.16332,-1.386948 1.16332,-2.680713 0,-1.57523 -0.87583,-3.952862 -1.45609,-3.952862 -0.17455,0 -0.61951,0.188692 -0.9888,0.419315 -0.57379,0.358336 -0.91939,0.220388 -2.37646,-0.948591 -0.93777,-0.752348 -2.53848,-2.232594 -3.55712,-3.289435 -1.77095,-1.837357 -1.85208,-2.005443 -1.85208,-3.837102 0,-2.314526 -0.45642,-3.280298 -1.55026,-3.280298 -0.96809,0 -4.32253,-1.722744 -6.56363,-3.370894 -1.92529,-1.415889 -6.94702,-6.301917 -8.2998,-8.07551 -1.17728,-1.543496 -0.9458,-1.901887 1.46062,-2.261388 1.69237,-0.252829 1.70278,-0.261966 0.56904,-0.499664 -0.64296,-0.134803 -1.24352,-0.518942 -1.3549,-0.866641 -0.11003,-0.343483 -0.33443,-0.942015 -0.49867,-1.330071 -0.65208,-1.540699 -0.69139,-2.3562 -0.34633,-7.184775 0.38723,-5.418781 0.18482,-7.802934 -1.11217,-13.099948 -0.40383,-1.649236 -1.384,-4.506736 -2.17817,-6.35 -1.75456,-4.072354 -5.30641,-10.175445 -6.42171,-11.034346 -0.44808,-0.345071 -1.14053,-1.297571 -1.53878,-2.116667 -0.39825,-0.819096 -1.16428,-1.954504 -1.7023,-2.523129 -0.53802,-0.5686248 -1.3751,-1.6125976 -1.86017,-2.3199396 -1.03933,-1.5155852 -4.7355,-5.9818257 -7.23194,-8.73866512 -1.93674,-2.13875758 -8.85679,-7.47362488 -9.70473,-7.48165578 -0.29287,-0.00277 -0.73078,-0.3225434 -0.97313,-0.710599 -0.24234,-0.3880555 -0.61469,-0.7055556 -0.82744,-0.7055556 -0.21275,0 -1.11344,-0.4903859 -2.00152,-1.0897459 -0.89131,-0.601534 -2.36524,-1.20839 -3.28999,-1.354574 -0.92142,-0.145656 -2.04345,-0.503273 -2.49341,-0.794704 -0.44997,-0.291432 -1.77062,-0.806314 -2.93478,-1.144183 -1.16417,-0.33787 -2.41379,-0.773272 -2.77694,-0.967561 -1.43602,-0.768286 -4.06392,-1.379164 -6.83626,-1.589146 -1.652,-0.125125 -2.90534,-0.08338 -2.89868,0.09654 0.0183,0.494445 1.29213,1.904482 1.72051,1.904482 0.21143,0 0.38442,0.233115 0.38442,0.518034 0,0.284919 0.8246,1.882348 1.60378,3.406927 1.71809,3.3616882 2.26251,6.4815426 2.27065,10.75806643 l 0.006,3.21774937 3.61597,0.241507 c 7.05313,0.4710715 13.25426,1.9284775 17.72708,4.1662683 2.25504,1.1282129 6.68944,4.5472089 7.24566,5.5865219 0.18395,0.343701 1.65199,1.946977 3.26232,3.562835 4.84417,4.860803 7.72784,10.31315 9.82872,18.583821 1.20268,4.734619 1.50527,9.26382 0.7813,11.694384 -0.26007,0.873125 -0.47458,1.946841 -0.47668,2.386036 -0.004,0.865354 -0.53365,1.939942 -1.49475,3.033398 -0.33495,0.381073 -0.79422,1.254097 -1.0206,1.940052 -0.37496,1.13614 -0.34135,1.295931 0.37744,1.794548 1.66066,1.151984 6.993,6.027486 9.1328,8.350369 3.16987,3.441086 3.23185,3.514445 3.23185,3.825097 0,0.154019 0.80168,1.361434 1.7815,2.683145 0.97983,1.321711 2.36889,3.477215 3.08681,4.79001 1.44463,2.641684 1.81561,2.854939 5.06595,2.912181 1.99676,0.03517 1.99676,0.03517 4.40114,2.721643 2.50453,2.798365 5.81453,5.570014 7.01527,5.87427 1.38107,0.349949 1.74004,0.241881 2.88601,-0.86884 z M -187.67777,2.6765255 c -1.65073,-0.1761788 -1.95669,-0.3224199 -2.05028,-0.9799693 0.35945,-1.27909682 1.40653,-1.17557085 2.78933,-1.17279228 0.77514,0.001558 1.49525,0.25624348 1.85209,0.65054108 0.77322,0.8543992 0.75451,1.8402024 -0.0335,1.7668039 -0.33955,-0.031626 -1.49049,-0.1506884 -2.55764,-0.2645834 z m 1.41111,-1.0890262 c -0.70718,-0.4570179 -2.92829,-0.4570179 -2.64583,0 0.11991,0.1940278 0.88334,0.3503469 1.69651,0.3473758 1.08455,-0.00396 1.33749,-0.096518 0.94932,-0.3473758 z m 17.99167,0.1763889 c -62.52988,-34.3958352 -62.52988,-34.3958352 0,0 z m -24.23609,-14.9335972 c -0.70279,-0.712541 -1.32293,-0.796562 -2.04586,-1.47057 -0.35118,-0.388056 -0.77548,-0.883383 -0.59989,-0.886354 0.6196,-0.01059 -1.20522,-0.675128 1.30545,-0.338702 2.20075,0.294897 3.09215,0.710203 3.09215,1.560848 0,0.36506 0.23409,0.632638 0.46302,0.70895 0.5588,0.186265 -0.0468,1.424702 -0.68131,1.424702 -0.27481,0 -1.0088,-0.752011 -1.53356,-0.998874 z m 1.64639,0.259007 c 0.52105,-0.355896 -0.97294,-2.171052 -1.8485,-2.444839 -0.54114,-0.169214 -1.53278,-0.201253 -1.53278,-0.104244 0,0.09701 0.22631,0.866214 0.81951,1.123525 0.32566,0.141263 2.03563,1.784931 2.56177,1.425558 z"
         id="path22"
         transform="translate(230.80487,32.631947)" /></g></g></g>
			<!-- L3 -->
			<!--
			<g>
			<path d="M-690.9,527.5h4.6v22.4h13.4v4h-18V527.5z"/>
			<path d="M-664.1,538.8c2.8,0.1,5.7-0.9,5.7-4.1c0-2.2-1.7-3.7-4-3.7c-2.9,0-4.4,2.6-4.3,5.3h-4.2c0.2-5,3.4-8.8,8.6-8.8
			c4,0,8.2,2.3,8.2,6.9c0,2.6-1.1,4.7-3.7,5.5v0.1c3,0.6,4.7,3.1,4.7,6.5c0,4.9-4.3,7.9-9.2,7.9c-6,0-9-3.6-9.1-9h4.2
			c-0.1,3.1,1.6,5.5,4.9,5.5c2.8,0,5-1.7,5-4.6c0-4-3.4-4.5-6.8-4.4L-664.1,538.8L-664.1,538.8z"/>
			</g>
			-->
		</g>
		<g
   id="g11">
			<g
   id="g10">
				<path
   class="st3"
   d="M-577,586.5c-25.1,0-45.5-20.4-45.5-45.5s20.4-45.5,45.5-45.5s45.5,20.4,45.5,45.5S-551.9,586.5-577,586.5z"
   id="path8"
   style="fill:#fdf7fa;fill-opacity:1" />
				<g
   id="g9">
					<path
   class="st4"
   d="M-577,497c24.3,0,44,19.7,44,44s-19.7,44-44,44s-44-19.7-44-44S-601.3,497-577,497 M-577,494      c-26,0-47,21-47,47s21,47,47,47s47-21,47-47S-551,494-577,494L-577,494z"
   id="path9"
   style="fill:#39bcc4;fill-opacity:1" />
				</g>
			</g>
			<!-- guide lines -->
			<!--
			<line class="st7" x1="-577" y1="494" x2="-577" y2="588" />
			<line class="st7" x1="-530" y1="541" x2="-624" y2="541" />
			<line class="st7" x1="-543.8" y1="507.8" x2="-610.2" y2="574.2" />
			<line class="st7" x1="-543.8" y1="574.2" x2="-610.2" y2="507.8" />
			-->
			<circle
   class="st5"
   cx="-577"
   cy="541"
   r="27.3"
   id="circle10"
   style="fill:#12dfeb;fill-opacity:1" />
			<!-- R3 -->
			<!--
			<g>
			<path d="M-597.3,527.5h12.6c5.8,0,8.7,2.7,8.7,7.1c0,5.1-3.5,6.4-4.4,6.7v0.1c1.6,0.2,3.9,1.4,3.9,5.6c0,3.1,0.4,5.9,1.4,7h-5
			c-0.7-1.1-0.7-2.6-0.7-3.9c0-4.8-1-7-5.3-7h-6.8V554h-4.6v-26.5H-597.3z M-592.7,539.6h7.6c3,0,4.5-1.4,4.5-4.2
			c0-3.4-2.2-4-4.6-4h-7.5V539.6z"/>
			<path d="M-565.7,538.8c2.8,0.1,5.7-0.9,5.7-4.1c0-2.2-1.7-3.7-4-3.7c-2.9,0-4.4,2.6-4.3,5.3h-4.2c0.2-5,3.4-8.8,8.6-8.8
			c4,0,8.2,2.3,8.2,6.9c0,2.6-1.1,4.7-3.7,5.5v0.1c3,0.6,4.7,3.1,4.7,6.5c0,4.9-4.3,7.9-9.2,7.9c-6,0-9-3.6-9.1-9h4.2
			c-0.1,3.1,1.6,5.5,4.9,5.5c2.8,0,5-1.7,5-4.6c0-4-3.4-4.5-6.8-4.4L-565.7,538.8L-565.7,538.8z"/>
			</g>
			-->
		<g
   id="g18"
   transform="matrix(0.30604437,0,0,0.30604437,-898.93984,582.02744)"
   style="display:none"><g
     id="layer1"
     transform="matrix(2.0152535,0,0,2.0152535,1369.4718,-211.2607)"><g
       id="layer4"
       transform="translate(-230.80487,-32.631947)"
       style="display:inline"><path
         style="display:inline;opacity:1;fill:#000000;fill-opacity:1;stroke:#000000;stroke-width:0.5;stroke-opacity:1"
         d="m 253.90593,407.37173 c -4.82841,-1.27852 -8.23684,-2.81847 -8.73126,-2.01848 -0.19264,0.3117 -1.76756,-0.27106 -1.33921,-0.10668 0.42835,0.16437 0.43336,1.29578 0.28121,1.54196 -0.52622,0.85146 -3.73989,1.81271 -5.85831,0.57123 -1.16976,-0.68552 -3.96605,-0.8498 -5.45776,-1.12127 -2.83681,-0.51625 -4.4529,-1.30739 -21.8461,-10.43928 -15.04387,-7.89843 -20.37146,-12.50272 -30.86244,-22.56177 -10.45447,-10.02402 -17.90631,-19.84506 -26.42312,-34.63389 -2.13801,-3.7125 -5.12356,-7.1663 -6.0944,-8.53935 -3.35153,-4.74004 -6.14873,-13.62307 -9.91015,-28.28387 -2.23824,-8.72392 -3.06612,-15.13896 -3.07698,-27.35355 -0.0135,-15.16459 1.19891,-29.68374 3.68216,-37.75369 0.78107,-2.53826 1.20157,-7.53197 1.7987,-10.55697 1.9547,-9.9024 9.70813,-25.97818 17.6072,-37.69504 2.33637,-3.46559 5.64333,-7.96766 6.48456,-9.57249 1.63769,-3.12425 4.95168,-7.40013 17.32755,-18.61927 8.33697,-7.55773 13.68451,-10.65225 19.02644,-13.63857 2.11031,-1.17973 7.19113,-4.03119 11.07464,-6.33656 8.1143,-4.8169 9.80499,-5.93282 22.76229,-9.71808 10.96768,-3.20403 16.10094,-4.56998 22.59343,-5.24321 2.56981,-0.26648 6.08495,-0.34511 8.89173,-0.93094 4.37339,-0.91282 6.7757,-1.01955 12.56034,-0.74633 11.34199,0.53571 27.56808,2.50115 36.41635,4.74843 15.70246,3.9881 37.29753,13.48869 49.0277,22.32619 5.42309,4.08574 16.61111,14.52744 22.57127,20.96891 9.99063,10.79742 14.04035,17.54458 20.18332,29.80352 8.64041,17.24285 13.08021,32.13163 15.88232,53.57553 1.92877,14.76048 1.86267,26.81652 -1.81754,45.0347 0.55063,-2.03494 -1.29319,4.8185 -4.11977,12.14577 -0.33988,0.88107 -0.57495,2.68433 -1.45929,4.96072 -1.51119,3.88999 -2.0639,4.84056 -2.89276,6.47764 -3.16012,6.24155 1.37318,3.26721 -11.62597,22.53109 -4.67942,6.9346 -18.17598,20.73912 -22.18642,23.59949 -1.27157,0.90692 -3.69612,1.45364 -5.21015,0.90616 -1.54441,-0.55847 -6.05055,3.63498 -7.48972,1.73494 -2.81519,-3.7167 0.1263,-0.99236 7.80449,-11.52247 2.30599,-3.1625 3.97942,-6.34576 4.21526,-6.95934 0.23585,-0.61358 3.13581,-5.08858 6.1388,-9.5625 8.75219,-13.0392 13.73003,-23.16413 17.90283,-35.42341 3.16627,-9.30216 3.37661,-16.09932 4.51183,-29.26971 0.90116,-10.45492 1.75645,-12.02562 1.26447,-18.36611 -0.67483,-8.69692 -2.80327,-19.77722 -4.83087,-27.66357 -3.3629,-13.08001 -12.23858,-30.82805 -21.64502,-43.91158 -4.94942,-6.88421 -20.12741,-20.92356 -28.70523,-27.02444 -7.66271,-5.45002 -22.29167,-12.19033 -33.6859,-16.43027 -8.9946,-3.347 -21.49738,-6.01292 -35.98484,-6.59355 -16.09456,-0.64505 -38.2025,3.3373 -47.38271,7.98687 -1.88552,0.95497 -5.93546,2.40422 -7.48744,2.68041 -7.40389,1.31761 -24.02441,11.53602 -36.77422,22.68626 -9.53383,8.33774 -22.60476,25.40517 -29.64305,38.72438 -1.80085,3.40792 -2.21603,7.52977 -3.0646,10.8113 -0.71113,2.75 -2.77998,7.43874 -3.73321,9.98729 -2.04416,5.46528 -3.05529,12.93508 -3.88266,21.19973 -0.91016,9.09177 -1.06368,29.87718 0.28734,37.76075 3.35778,19.59341 9.9552,33.47074 21.15283,48.94347 10.80727,14.93335 27.02011,31.81966 40.36294,40.09548 6.87784,4.26594 32.85998,16.15937 36.83261,17.38639 4.53455,1.40058 13.83758,2.74556 23.4623,2.80028 9.59898,0.0546 11.19552,-0.74481 18.5084,-1.30395 4.31877,-0.3302 9.45619,0.13896 10.10485,0.0895 19.36333,-1.47659 35.39671,-11.06991 52.26236,-18.63459 -8.68411,6.51937 -17.76671,12.53157 -28.2704,16.7351 l -23.33203,4.27993 c -0.72711,0.13338 -4.12031,1.25799 -6.91292,1.50636 -4.65057,0.41361 -5.16689,0.17439 -9.09134,2.66563 l -4.32322,2.74437 -9.26647,0.29753 c -4.53565,0.14563 -9.01151,-0.49215 -10.46967,-0.0298 -2.84301,1.25283 -5.23093,-0.97853 -8.09537,-1.74268 z m 136.63095,-55.64534 0.31567,1.7477 2.03324,-2.75199 c 4.57709,-6.19509 3.84488,-6.58508 2.62899,-7.38139 -0.53655,-0.3514 -1.16566,0.75921 -1.98007,1.62742 -1.37976,1.47091 -3.0955,3.36891 -2.99783,6.75826 z"
         id="path5-5"
         transform="scale(0.26458333)" /><path
         style="display:inline;fill:#000000;stroke-width:1;stroke-dasharray:none"
         d="m -168.13894,75.84505 c -0.55576,-0.289846 -1.22757,-0.526993 -1.49291,-0.526993 -0.7085,0 -6.3523,-2.662806 -6.64393,-3.134677 -0.13705,-0.221751 -0.86102,-0.715319 -1.60882,-1.096818 -0.7478,-0.381499 -2.30606,-1.569856 -3.4628,-2.640792 -2.13117,-1.973089 -2.68566,-2.507452 -1.76231,-1.123678 0.79838,1.1965 0.72854,0.966137 -0.40135,0.253576 -0.48767,-0.30755 -0.533,-0.900344 -0.61024,-1.100498 -0.15615,-0.404666 -0.643,-0.994472 -1.70811,-1.904428 -1.06511,-0.909955 -1.93657,-1.908383 -1.93657,-2.218729 0,-0.790247 -2.40451,-4.196377 -3.44249,-4.876487 -0.63262,-0.414509 -0.81756,-0.792417 -0.69684,-1.423929 0.0904,-0.472816 -0.0294,-0.974725 -0.26611,-1.115353 -0.73453,-0.436315 -1.35967,-1.896812 -2.22343,-5.194577 -1.39348,-5.320147 -1.62094,-7.843127 -1.20513,-13.36681 0.24432,-3.245627 0.62377,-5.687249 1.09049,-7.017002 0.39368,-1.121652 0.63309,-2.254859 0.53202,-2.518238 -0.20615,-0.537214 1.84393,-6.072003 2.56888,-6.935451 0.25719,-0.30632 0.46761,-0.802195 0.46761,-1.101944 0,-0.299749 0.64384,-1.239749 1.43075,-2.088889 0.78691,-0.849139 1.637,-2.024063 1.88907,-2.610941 0.25208,-0.586878 1.03593,-1.539378 1.7419,-2.116666 0.70597,-0.577289 2.23655,-1.953063 3.4013,-3.0572748 2.74538,-2.6027062 8.65322,-6.1054043 11.8217,-7.0089718 1.3582,-0.3873207 2.9457,-0.8725982 3.52778,-1.07839426 2.69297,-0.95210242 4.27275,-1.13806471 9.70139,-1.14198902 6.37785,-0.00461 8.67574,0.36532756 13.73241,2.21078448 1.59887,0.5835121 3.92775,1.6317522 5.1753,2.3294226 3.24253,1.8133278 7.49662,5.1048011 9.76648,7.5565158 2.47672,2.675151 5.53269,7.256839 6.96034,10.435352 3.89624,8.674547 4.61618,19.914172 1.79991,28.099815 -2.16638,6.296692 -7.7202,14.236317 -11.29767,16.150922 -0.60882,0.32583 -0.73677,0.293209 -0.73677,-0.187846 0,-0.53766 -0.0665,-0.538608 -0.86953,-0.01241 -0.47824,0.313357 -1.13045,0.56974 -1.44936,0.56974 -0.92933,0 -0.30229,-1.734647 1.17957,-3.263195 0.70538,-0.727604 1.11615,-1.322916 0.91282,-1.322916 -0.20334,0 -0.67034,0.332204 -1.03779,0.738231 -0.8795,0.971833 -1.91071,1.525527 -1.91071,1.025927 0,-0.207532 1.04239,-1.364055 2.31641,-2.570051 2.08599,-1.974603 4.55555,-5.327297 5.45754,-7.409203 0.18604,-0.429406 0.48615,-1.018863 0.66691,-1.309905 1.70987,-2.753032 2.73714,-6.847043 3.06258,-12.205453 0.38091,-6.271579 -0.93742,-12.776367 -3.41175,-16.833961 -0.56987,-0.934524 -1.03613,-1.788689 -1.03613,-1.898145 0,-0.109456 -0.55563,-0.9724 -1.23473,-1.917654 -0.67909,-0.945254 -1.23472,-1.847172 -1.23472,-2.004262 0,-0.15709 -0.47625,-0.637725 -1.05833,-1.068078 -0.58208,-0.430353 -1.05833,-0.93687 -1.05833,-1.125594 0,-0.40086 -2.10003,-2.34165 -4.90276,-4.531008 -2.084,-1.6279185 -7.38673,-4.304335 -9.74885,-4.9204777 -3.71015,-0.967768 -5.8679,-1.2583707 -9.47505,-1.2760842 -4.63809,-0.022776 -8.93049,0.6690112 -11.20236,1.8054377 -0.9013,0.4508471 -1.82138,0.819722 -2.04463,0.819722 -0.22324,0 -1.15142,0.3968751 -2.06263,0.8819445 -0.9112,0.4850695 -1.81674,0.8863609 -2.01231,0.8917588 -0.50117,0.013832 -2.76159,1.7540699 -5.61479,4.3226699 -2.26053,2.035047 -5.45195,6.000803 -7.06507,8.77927 -0.80243,1.382107 -2.60492,6.21244 -3.0716,8.231302 -0.79353,3.432785 -1.05418,7.780576 -0.66621,11.112501 0.63809,5.479991 1.5066,8.254589 3.98446,12.729032 1.79067,3.233534 2.88176,4.711162 5.2299,7.08266 4.67144,4.717911 6.65911,6.01602 15.51079,10.129815 2.80792,1.30497 7.4338,1.472766 14.55605,0.527996 2.29301,-0.304169 4.25176,-0.470394 4.35276,-0.369389 0.10101,0.101006 1.18708,-0.194047 2.41351,-0.655671 2.00115,-0.753231 8.15508,-3.732156 7.75836,-3.332736 -0.39147,0.414971 -5.24,3.774081 -5.54082,3.927019 -0.78982,0.401549 -1.8023,0.702442 -3.45153,1.212147 -1.64924,0.509705 -3.30875,1.09018 -3.6878,1.289944 -0.37905,0.199765 -1.33697,0.390505 -2.12871,0.423866 -1.56961,0.06614 -1.77268,0.371625 -2.1215,0.901163 -0.21018,0.319071 -0.71163,0.303203 -1.81043,0.303203 -1.0988,0 -3.16439,0.109316 -4.59019,0.242925 -2.10127,0.196904 -2.75967,0.133306 -3.47548,-0.335712 -0.77284,-0.506381 -0.88312,-0.511543 -0.88312,-0.04134 0,0.715886 -2.28792,0.719615 -3.65629,0.006 z m 2.12759,-0.4094 c -0.12935,-0.129352 -0.34102,-0.129352 -0.47037,0 -0.12935,0.129351 -0.0235,0.235185 0.23519,0.235185 0.2587,0 0.36453,-0.105834 0.23518,-0.235185 z m 1.17593,0.07962 c 0,-0.08556 -0.15875,-0.253682 -0.35278,-0.373598 -0.19403,-0.119916 -0.35278,-0.04991 -0.35278,0.155569 0,0.205479 0.15875,0.373598 0.35278,0.373598 0.19403,0 0.35278,-0.07001 0.35278,-0.155569 z m 10.58333,0 c 0,-0.08556 -0.23289,-0.310182 -0.45689,-0.448626 -0.25235,-0.155956 -0.26192,-0.05543 -0.10596,0.19691 0.25133,0.406665 0.56285,0.545982 0.56285,0.251716 z m -12.40584,-0.960137 c -0.59799,-0.396452 3.1837,0.03555 4.00418,0.457423 0.32679,0.168028 1.88925,0.305505 3.47213,0.305505 2.34379,0 3.04445,-0.130957 3.77493,-0.705556 0.56282,-0.44271 1.4378,-0.707568 2.3487,-0.710957 0.79846,-0.003 1.68986,-0.15929 1.9809,-0.347376 0.40434,-0.261302 0.27951,-0.337905 -0.52917,-0.324726 -1.106,0.01802 -5.68501,0.56028 -4.91684,0.620378 0.99983,0.07822 2.00249,0.0096 0.95438,0.148785 -0.42672,0.03214 -1.71938,0.483779 -1.6109,0.201068 0.13256,-0.345439 -0.73408,-0.23424 -3.51535,-0.376189 -2.94389,-0.150248 -4.0647,-0.370773 -5.75059,-1.131462 -1.15172,-0.519662 -2.33216,-1.097842 -2.6232,-1.284844 -0.29104,-0.187002 -1.56104,-0.844535 -2.82222,-1.461185 -3.62243,-1.771175 -6.26685,-3.731331 -9.64806,-7.151548 -7.28564,-7.369682 -10.3524,-14.981741 -10.16815,-25.238467 0.0689,-3.835899 0.6533,-7.354654 1.57942,-9.510145 0.29177,-0.679097 0.61165,-1.753544 0.71083,-2.38766 0.35141,-2.246822 4.75613,-8.792952 8.17735,-12.152874 3.09253,-3.037116 9.31808,-6.9789115 11.02228,-6.9789115 0.35133,0 0.96136,-0.225941 1.35562,-0.5020911 1.01847,-0.7133621 4.35863,-1.5032371 8.2596,-1.9532114 3.71287,-0.4282771 8.7243,-0.067717 12.48065,0.8979494 2.82646,0.7266153 8.70615,3.5847889 11.15546,5.4227756 2.22258,1.66784 5.69407,4.965236 6.93574,6.587909 2.10673,2.753158 4.53001,7.303151 5.61189,10.536947 1.20274,3.595063 2.01024,9.353129 1.73156,12.347223 -0.0722,0.776111 -0.21054,2.442986 -0.30734,3.704167 -0.33487,4.362886 -2.78451,10.43846 -6.07061,15.056272 -0.85318,1.198935 -1.55124,2.285429 -1.55124,2.414431 0,0.129001 -0.71437,1.173889 -1.5875,2.321974 -0.87312,1.148084 -1.5875,2.183285 -1.5875,2.300447 0,0.117162 0.4075,-0.05398 0.90556,-0.380319 0.66304,-0.434445 1.0284,-0.491386 1.36428,-0.212625 0.35107,0.291359 0.99718,-0.190057 2.75281,-2.051121 1.26174,-1.33751 2.8002,-3.167467 3.4188,-4.06657 1.63221,-2.372335 3.26887,-5.813792 2.98404,-6.274649 -0.13905,-0.224991 -0.0885,-0.300323 0.11646,-0.173634 0.39595,0.244706 1.7223,-2.843102 1.3718,-3.193602 -0.11756,-0.117564 -0.2249,0.09052 -0.23854,0.462405 -0.0236,0.644571 -0.0379,0.643198 -0.30463,-0.0294 -0.15391,-0.388056 -0.17268,-0.784931 -0.0417,-0.881944 0.13096,-0.09701 0.42313,-0.732014 0.64926,-1.411112 l 0.52691,-1.978863 -0.27826,2.155252 c -0.14374,1.113327 -0.0924,1.245423 0.17181,0.621002 0.18387,-0.434559 0.59876,-2.577685 0.92196,-4.7625 0.50745,-3.430312 0.5283,-4.501938 0.15279,-7.852947 -0.23917,-2.134305 -0.81248,-5.339817 -1.27404,-7.123359 -0.95057,-3.673206 -3.09804,-8.445075 -5.20855,-11.573864 -1.93687,-2.871375 -7.30455,-8.1874639 -10.10741,-10.010265 -3.46127,-2.2509826 -7.70931,-4.1820474 -11.36173,-5.1647794 -3.9995,-1.07612191 -11.13124,-1.77810025 -12.7462,-1.25461128 -0.61363,0.19890822 -1.98881,0.42206062 -3.05596,0.49589422 -1.06716,0.0738336 -2.97216,0.46814056 -4.23334,0.87623756 -1.26118,0.4080971 -2.94489,0.9065772 -3.74158,1.1077336 -0.79669,0.2011563 -2.02759,0.7587018 -2.73533,1.23899 -0.70774,0.4802881 -2.27269,1.3935747 -3.47766,2.0295257 -1.20498,0.635951 -2.99033,1.922334 -3.96745,2.8586288 -0.97712,0.9362948 -2.60069,2.4090348 -3.60793,3.2727548 -1.00724,0.863721 -1.94324,1.923286 -2.08,2.354591 -0.13676,0.431304 -0.79559,1.498564 -1.46407,2.371689 -1.7525,2.289011 -4.29466,7.698017 -4.65992,9.915019 -0.17244,1.04667 -0.47558,2.324231 -0.67363,2.839022 -0.9275,2.410768 -1.35363,8.728776 -0.95999,14.23346 0.1393,1.948005 2.24619,9.034734 2.90122,9.758537 0.29471,0.32565 0.87989,1.228007 1.30039,2.005239 0.42051,0.777233 1.47894,2.554083 2.35206,3.948558 2.42492,3.872853 7.55212,8.801997 11.0623,10.634965 0.99775,0.521013 2.60784,1.358142 3.57798,1.860287 0.97014,0.502144 2.16076,1.145083 2.64583,1.428752 0.48507,0.283669 1.19945,0.523152 1.5875,0.532183 0.38806,0.009 0.9988,0.238592 1.35721,0.510137 0.35841,0.271544 0.88766,0.403153 1.17611,0.292464 0.42847,-0.16442 0.43834,-0.258346 0.0539,-0.513215 z m 39.11166,-14.172071 c -0.0994,-0.25911 0.14674,-0.988398 0.54705,-1.620639 0.60459,-0.954895 0.7806,-1.05523 1.03951,-0.592588 0.21597,0.385923 0.0702,0.883565 -0.47475,1.620639 -0.43253,0.585033 -0.81896,1.063698 -0.85873,1.063698 -0.0398,0 -0.15365,-0.212 -0.25308,-0.47111 z m 0.85585,-0.851807 c 0.43881,-0.559525 0.42633,-0.572003 -0.1332,-0.133193 -0.58764,0.460858 -0.77451,0.750554 -0.48416,0.750554 0.0732,0 0.35106,-0.277813 0.61736,-0.617361 z m 0.66055,-0.970139 c 0,-0.09701 -0.0794,-0.176389 -0.17639,-0.176389 -0.097,0 -0.17638,0.07937 -0.17638,0.176389 0,0.09701 0.0794,0.176389 0.17638,0.176389 0.097,0 0.17639,-0.07937 0.17639,-0.176389 z m 3.88056,-6.879167 c 0,-0.258704 0.10583,-0.364537 0.23518,-0.235185 0.12936,0.129352 0.12936,0.341018 0,0.47037 -0.12935,0.129352 -0.23518,0.02352 -0.23518,-0.235185 z M -122.50209,50.8 c 0,-0.09701 0.0794,-0.176388 0.17639,-0.176388 0.097,0 0.17639,0.07937 0.17639,0.176388 0,0.09701 -0.0794,0.176389 -0.17639,0.176389 -0.097,0 -0.17639,-0.07937 -0.17639,-0.176389 z m 0.57275,-0.366416 c -0.34042,-0.887128 -0.24,-1.116031 0.17587,-0.400874 0.20591,0.354101 0.30007,0.718135 0.20924,0.808964 -0.0908,0.09083 -0.26413,-0.09281 -0.38511,-0.40809 z m -27.29567,22.534168 c -0.24253,-0.09786 -0.63941,-0.09786 -0.88194,0 -0.24254,0.09786 -0.0441,0.177936 0.44097,0.177936 0.48507,0 0.68351,-0.08007 0.44097,-0.177936 z m 1.93293,-0.332276 c -0.11722,-0.117225 -0.42149,-0.129758 -0.67616,-0.02785 -0.28142,0.112616 -0.19782,0.196209 0.21314,0.213137 0.37189,0.01532 0.58025,-0.06806 0.46302,-0.185287 z m 1.73377,-0.419785 c -0.36016,-0.07634 -0.80876,0.01512 -0.99689,0.203253 -0.22089,0.220887 0.0111,0.270055 0.65483,0.138802 0.73835,-0.15054 0.82706,-0.239251 0.34206,-0.342055 z m 1.23794,-0.319512 c -0.27295,-0.434923 -0.25332,-0.05919 -0.38268,0.07016 -0.12935,0.129352 -0.32751,0.638594 0.17673,0.182565 0.19187,-0.173525 0.41815,0.0854 0.20595,-0.252725 z m 0.90517,-0.439385 c -0.12092,-0.252555 0.4663,-0.540191 0.36931,-0.540191 -0.097,0 -0.74689,0.426636 -0.74689,0.523655 0,0.09701 -0.27618,0.73036 0.82958,0.192925 0.0872,-0.0424 -0.28696,0.168296 -0.452,-0.176389 z m 6.14616,-3.2967 c 0.11964,-0.138385 -1.71825,1.019446 -1.8476,1.148798 -0.12935,0.129352 -3.96061,1.953002 -3.50205,2.079 0.26072,0.07164 5.11651,-2.958129 5.34965,-3.227798 z m 5.59473,-6.423982 c 0,-0.09701 -0.0794,-0.176389 -0.17639,-0.176389 -0.097,0 -0.17639,0.07937 -0.17639,0.176389 0,0.09701 0.0794,0.176389 0.17639,0.176389 0.097,0 0.17639,-0.07937 0.17639,-0.176389 z m -59.1391,-5.291667 c -0.11168,-0.291042 -0.26545,-0.529167 -0.3417,-0.529167 -0.0763,0 -0.13865,0.238125 -0.13865,0.529167 0,0.291042 0.15377,0.529167 0.34171,0.529167 0.18794,0 0.25033,-0.238125 0.13864,-0.529167 z m 55.06353,10.084298 c 0.10968,-0.177456 0.0357,-0.403675 -0.16439,-0.502708 -0.20008,-0.09903 -0.17131,-0.142359 0.0639,-0.09628 0.55944,0.10958 0.82732,0.921632 0.30403,0.921632 -0.22165,0 -0.31326,-0.145191 -0.20359,-0.322647 z m -1.33063,-0.967811 c -0.29601,-0.296014 0.42592,-1.182433 0.95148,-1.168259 0.21878,0.0059 0.11662,0.174407 -0.22701,0.37446 -0.34363,0.200052 -0.53269,0.512725 -0.42015,0.694828 0.23489,0.380063 0.0401,0.443408 -0.30432,0.09897 z"
         id="path1-51"
         transform="translate(230.80487,32.631947)" /><path
         d="m -121.27057,35.631809 c -0.13406,-2.993703 -1.52223,-8.892022 -1.27666,-8.898999 0.22979,-0.0065 1.66331,5.757396 1.82672,8.723947 0.22837,4.145847 -1.03536,12.404363 -1.19833,12.398622 -0.27922,-0.0098 0.83081,-8.147406 0.64827,-12.22357 z m 1.15501,5.102884 c -0.11478,1.371081 -0.86704,5.59536 -1.12871,5.53982 -0.11047,-0.02345 0.66328,-3.818498 0.74887,-5.497819 0.0856,-1.679321 0.0284,-4.775665 0.14456,-4.813566 0.11616,-0.0379 0.41864,2.58142 0.23528,4.771565 z M -133.73937,9.6710524 c -1.61153,-1.4603665 -3.30525,-2.2669102 -3.05968,-2.2738872 0.22979,-0.0065 2.18245,0.6695302 3.62177,2.0400263 2.95312,2.8119005 2.43146,2.5777085 2.12817,2.5018095 -0.27922,-0.0098 0.33055,0.469502 -2.69026,-2.2679486 z m 9.38703,46.3883896 c -0.11478,1.371081 1.65977,-3.868379 1.77593,-3.90628 0.11616,-0.0379 -1.59257,1.716135 -1.77593,3.90628 z"
         style="display:inline;fill:#fdf7fa;fill-opacity:1"
         id="path1-5"
         transform="translate(230.80487,32.631947)" /></g><g
       id="layer3"
       transform="translate(-230.80487,-32.631947)"><path
         style="display:inline;fill:#000000;fill-opacity:1;stroke:#000000;stroke-width:0.5;stroke-opacity:1"
         d="m 422.65965,454.89214 c -1.25693,-0.33891 -3.61338,-1.47289 -4.83145,-2.19588 -5.46753,-3.24528 -14.194,-12.94932 -24.96093,-24.5133 -2.45966,-2.64175 -5.62517,-4.19609 -6.49429,-4.64242 -1.09178,-0.56067 -2.3492,-1.25896 -6.78465,-1.46885 -8.19939,-0.388 -12.47732,-1.55427 -14.83452,-4.01208 -1.00047,-1.04318 -3.67815,-6.1034 -6.46353,-10.75881 -2.78539,-4.6554 -7.01213,-11.17568 -9.66444,-14.86873 -2.6523,-3.69304 -6.55099,-8.10159 -7.39904,-9.70456 -3.64407,-6.88802 -31.32215,-34.31896 -44.72456,-44.38024 -1.86757,-1.402 -3.58626,-3.94985 -3.73906,-4.55594 -0.40686,-1.61372 2.63461,-8.13285 4.66058,-10.99464 4.65099,-6.56977 5.62019,-7.95313 6.0816,-10.42415 0.77128,-4.13057 1.86578,-10.9531 2.67427,-14.74754 1.1101,-5.20996 0.77697,-18.53491 -0.85751,-27.9375 -4.02564,-23.15818 -12.82082,-46.24188 -23.33979,-62.1875 -4.9955,-7.57263 -9.72533,-12.93881 -19.18457,-22.84035 -4.44796,-4.65594 -9.14756,-10.02189 -10.21438,-11.466 -3.17983,-4.30436 -15.1432,-13.49892 -23.39629,-18.22909 -16.61246,-9.52125 -47.80144,-16.00509 -78.43709,-17.58566 -9.29948,-0.47978 -4.99931,-0.53306 -5.0041,-11.76342 -0.008,-19.07793 -3.09435,-27.808603 -10.53196,-43.457944 -2.09967,-4.417895 -4.0142,-9.270036 -4.48367,-10.782536 -0.58008,-1.868849 -1.54685,-2.443793 -2.35443,-2.854814 -1.60903,-0.818927 -4.61981,-4.336391 -5.48558,-5.997337 -0.69245,-1.328448 -0.79953,-3.170331 0.89718,-3.488637 2.36898,-0.444424 15.7598,0.91672 21.95684,2.112626 5.31506,1.0257 10.65086,2.891849 15.31822,4.984596 1.5125,0.678172 6.26031,1.804557 9.93959,2.961409 3.67927,1.156853 8.76677,2.793321 11,3.865762 2.23323,1.072441 6.14791,2.853778 8.62291,3.423804 6.21033,1.430322 8.96077,2.704897 15.13454,6.383762 2.92713,1.744231 4.24374,3.983829 4.68276,3.983829 0.43901,0 2.75659,0.344883 3.92795,1.606685 1.17137,1.261801 4.09974,2.501413 5.51446,3.136636 4.85759,2.181123 16.54483,11.022989 27.45467,20.377799 8.22821,7.05541 21.19109,22.24039 35.19479,40.49274 3.34585,4.36097 7.14274,9.37608 8.43752,10.92864 1.29478,1.55255 4.03358,4.6595 5.54608,7.33645 1.5125,2.67694 4.19279,6.44505 5.84816,8.26555 3.85533,4.23992 4.54641,5.56449 8.8755,12.66136 13.53108,22.18213 21.25866,42.15385 25.61506,63.76736 2.67538,13.27347 2.90314,22.81808 1.66783,41.94898 -0.97051,15.02997 0.0732,19.33192 2.43271,25.43018 1.03164,2.66636 1.83138,4.80301 2.3501,5.27245 0.51873,0.46944 1.50132,1.42872 2.93976,1.91568 2.82617,0.95675 7.48028,1.91091 -1.88511,2.92229 -3.99797,0.43174 -6.97901,1.10546 -7.52672,2.12887 -0.84487,1.57865 0.78323,4.02671 5.82889,9.69796 5.46409,6.14155 18.04276,17.8142 24.06514,22.82986 9.58068,7.97914 25.75009,16.03051 30.71076,16.03051 7.40582,0 1.63945,15.75983 5.56139,21.40168 2.88487,4.14996 17.13554,17.10245 22.24113,20.50495 2.41195,1.60739 3.63511,1.14497 6.51572,-0.25453 1.21567,-0.59062 2.81977,-0.12215 3.24902,0.0426 1.13246,0.43456 3.18594,4.68658 4.2984,9.03626 1.07855,4.2171 0.61071,9.31447 -0.18016,12.16238 -0.94519,3.40365 -8.97596,9.51457 -11.72736,9.36973 -0.35258,-0.0186 -3.48141,-0.53233 -4.73834,-0.87091 z M 173.35945,132.47068 c 1.2057,-2.25288 -0.51158,-3.53922 -3.72629,-4.88241 -0.89776,-0.37511 -0.98952,-1.09171 -2.3046,-1.09592 -2.90157,-0.009 -4.18147,-0.24774 -5.54731,-0.2078 -2.72615,0.0797 -8.57149,4.08451 -3.22465,5.84913 1.55748,0.51401 8.1789,0.56339 11.51956,0.68352 1.1488,0.0413 2.88958,0.38913 3.28329,-0.34652 z M 151.92551,72.103553 c -0.6875,-0.645872 -1.55936,-2.331103 -1.55936,-2.988745 0,-3.038391 -0.97009,-3.831073 -7.59823,-4.986924 -6.74894,-1.176917 -7.6938,-1.373944 -6.16243,1.776829 1.56133,3.212415 2.95212,4.245301 4.61885,4.83837 1.62843,0.438489 2.99277,1.409902 5.33436,3.79805 1.73046,1.764877 3.68094,2.148207 4.11832,2.148207 2.42505,-1.115681 2.50922,-2.727222 1.24849,-4.585787 z"
         id="path4"
         transform="scale(0.26458333)" /><path
         style="display:inline;fill:#000000"
         d="m -120.83109,87.170529 c -0.96755,-0.660169 -3.16495,-2.644544 -4.88312,-4.409722 l -3.12394,-3.209416 h -2.36631 c -2.13257,0 -2.45337,-0.09583 -3.2477,-0.970138 -0.48477,-0.533577 -1.06662,-1.406556 -1.29301,-1.939954 -0.5848,-1.377835 -3.44653,-5.659259 -4.29734,-6.429239 -0.3937,-0.356289 -0.71581,-0.783319 -0.71581,-0.948955 0,-0.711193 -2.2353,-3.249359 -6.36536,-7.227827 -2.43379,-2.344461 -4.9341,-4.525885 -5.55625,-4.847609 -0.91884,-0.475152 -1.13093,-0.798465 -1.12985,-1.722421 7.2e-4,-0.625608 0.34166,-1.693094 0.75763,-2.372191 1.69473,-2.76674 2.08011,-3.624534 1.89308,-4.213784 -0.10791,-0.340014 0.044,-1.078822 0.3376,-1.641795 1.65204,-3.167864 -0.41491,-14.01785 -4.05929,-21.308311 -1.83016,-3.661175 -3.77576,-6.134131 -9.03932,-11.489454 -4.02715,-4.097344 -4.86699,-4.7747038 -7.54842,-6.0880583 -4.79504,-2.348595 -11.79467,-3.8772982 -18.43739,-4.0266838 -1.68495,-0.037892 -3.07088,-0.1533872 -3.07985,-0.2566555 -0.009,-0.1032682 -0.0646,-2.0927605 -0.12373,-4.42109395 -0.0888,-3.49895195 -0.27586,-4.73272885 -1.07831,-7.11209195 -0.6855,-2.0325687 -1.16804,-2.9303165 -1.64161,-3.0541595 -0.42408,-0.110899 -0.59535,-0.371864 -0.46573,-0.709648 0.24879,-0.648323 -0.31941,-1.786697 -1.66494,-3.335682 -1.2875,-1.482177 -1.33792,-2.801542 -0.11877,-3.107532 1.20922,-0.303493 6.08466,0.444844 8.55571,1.313225 1.11195,0.390767 3.05361,1.040269 4.31479,1.443337 1.26118,0.403069 2.68993,1.004685 3.175,1.336925 0.48507,0.33224 1.59632,0.683603 2.46945,0.780807 1.10927,0.123493 2.26435,0.643041 3.83433,1.724665 1.23575,0.851363 2.82325,1.8411615 3.52778,2.1995534 0.70452,0.3583919 1.67782,1.001746 2.16289,1.429676 0.48507,0.4279299 1.58589,1.2459502 2.44628,1.817823 2.09483,1.3923724 6.56618,5.801503 6.87723,6.7815306 0.13697,0.4315449 0.38303,0.7846271 0.54679,0.7846271 0.32125,0 5.29914,6.1153344 5.29914,6.5099835 0,0.1310899 0.46819,0.6322997 1.04042,1.1137996 0.57223,0.4814998 1.45001,1.7412508 1.95061,2.7994468 0.50061,1.058196 1.14367,1.923993 1.42903,1.923993 0.28536,0 0.51883,0.135569 0.51883,0.301264 0,0.165695 0.35719,0.702815 0.79375,1.193599 1.69444,1.904895 6.19061,11.437193 6.96398,14.764302 0.24404,1.04989 0.57571,2.305766 0.73703,2.790836 0.16133,0.485069 0.40139,1.675694 0.53348,2.645833 0.13208,0.970139 0.36333,2.094761 0.51388,2.499161 0.15055,0.404399 0.12416,2.547524 -0.0587,4.7625 -0.55063,6.671664 -0.51618,7.758395 0.29564,9.324582 0.60509,1.167364 1.00966,1.490424 2.29801,1.835003 0.99637,0.26649 1.56362,0.616373 1.56362,0.964453 0,0.418253 -0.42019,0.552056 -1.79328,0.571041 -3.66582,0.05069 -3.64671,0.138198 1.03045,4.719432 4.64128,4.546087 8.61707,7.29692 9.49418,6.568985 0.37847,-0.314109 1.45049,-1.183716 1.18141,-0.914024 -0.46972,0.470775 -1.01559,1.053966 -1.04984,1.423523 -0.0203,0.219349 0.2514,0.239197 0.9232,0.365228 1.89694,0.355869 2.48544,1.255437 2.4178,3.695836 l -0.0577,2.081022 3.24178,3.024985 c 1.78298,1.663742 3.29664,2.860412 3.36369,2.659267 0.067,-0.201146 0.64019,-0.365719 1.27365,-0.365719 0.99687,0 1.22652,0.177891 1.70778,1.322916 1.2636,3.006386 0.97189,5.420891 -0.83904,6.944687 -1.54883,1.303254 -3.22565,1.212035 -5.43538,-0.295688 z m 5.015,-0.632785 c 0.96902,-0.939216 1.16332,-1.386948 1.16332,-2.680713 0,-1.57523 -0.87583,-3.952862 -1.45609,-3.952862 -0.17455,0 -0.61951,0.188692 -0.9888,0.419315 -0.57379,0.358336 -0.91939,0.220388 -2.37646,-0.948591 -0.93777,-0.752348 -2.53848,-2.232594 -3.55712,-3.289435 -1.77095,-1.837357 -1.85208,-2.005443 -1.85208,-3.837102 0,-2.314526 -0.45642,-3.280298 -1.55026,-3.280298 -0.96809,0 -4.32253,-1.722744 -6.56363,-3.370894 -1.92529,-1.415889 -6.94702,-6.301917 -8.2998,-8.07551 -1.17728,-1.543496 -0.9458,-1.901887 1.46062,-2.261388 1.69237,-0.252829 1.70278,-0.261966 0.56904,-0.499664 -0.64296,-0.134803 -1.24352,-0.518942 -1.3549,-0.866641 -0.11003,-0.343483 -0.33443,-0.942015 -0.49867,-1.330071 -0.65208,-1.540699 -0.69139,-2.3562 -0.34633,-7.184775 0.38723,-5.418781 0.18482,-7.802934 -1.11217,-13.099948 -0.40383,-1.649236 -1.384,-4.506736 -2.17817,-6.35 -1.75456,-4.072354 -5.30641,-10.175445 -6.42171,-11.034346 -0.44808,-0.345071 -1.14053,-1.297571 -1.53878,-2.116667 -0.39825,-0.819096 -1.16428,-1.954504 -1.7023,-2.523129 -0.53802,-0.5686248 -1.3751,-1.6125976 -1.86017,-2.3199396 -1.03933,-1.5155852 -4.7355,-5.9818257 -7.23194,-8.73866512 -1.93674,-2.13875758 -8.85679,-7.47362488 -9.70473,-7.48165578 -0.29287,-0.00277 -0.73078,-0.3225434 -0.97313,-0.710599 -0.24234,-0.3880555 -0.61469,-0.7055556 -0.82744,-0.7055556 -0.21275,0 -1.11344,-0.4903859 -2.00152,-1.0897459 -0.89131,-0.601534 -2.36524,-1.20839 -3.28999,-1.354574 -0.92142,-0.145656 -2.04345,-0.503273 -2.49341,-0.794704 -0.44997,-0.291432 -1.77062,-0.806314 -2.93478,-1.144183 -1.16417,-0.33787 -2.41379,-0.773272 -2.77694,-0.967561 -1.43602,-0.768286 -4.06392,-1.379164 -6.83626,-1.589146 -1.652,-0.125125 -2.90534,-0.08338 -2.89868,0.09654 0.0183,0.494445 1.29213,1.904482 1.72051,1.904482 0.21143,0 0.38442,0.233115 0.38442,0.518034 0,0.284919 0.8246,1.882348 1.60378,3.406927 1.71809,3.3616882 2.26251,6.4815426 2.27065,10.75806643 l 0.006,3.21774937 3.61597,0.241507 c 7.05313,0.4710715 13.25426,1.9284775 17.72708,4.1662683 2.25504,1.1282129 6.68944,4.5472089 7.24566,5.5865219 0.18395,0.343701 1.65199,1.946977 3.26232,3.562835 4.84417,4.860803 7.72784,10.31315 9.82872,18.583821 1.20268,4.734619 1.50527,9.26382 0.7813,11.694384 -0.26007,0.873125 -0.47458,1.946841 -0.47668,2.386036 -0.004,0.865354 -0.53365,1.939942 -1.49475,3.033398 -0.33495,0.381073 -0.79422,1.254097 -1.0206,1.940052 -0.37496,1.13614 -0.34135,1.295931 0.37744,1.794548 1.66066,1.151984 6.993,6.027486 9.1328,8.350369 3.16987,3.441086 3.23185,3.514445 3.23185,3.825097 0,0.154019 0.80168,1.361434 1.7815,2.683145 0.97983,1.321711 2.36889,3.477215 3.08681,4.79001 1.44463,2.641684 1.81561,2.854939 5.06595,2.912181 1.99676,0.03517 1.99676,0.03517 4.40114,2.721643 2.50453,2.798365 5.81453,5.570014 7.01527,5.87427 1.38107,0.349949 1.74004,0.241881 2.88601,-0.86884 z M -187.67777,2.6765255 c -1.65073,-0.1761788 -1.95669,-0.3224199 -2.05028,-0.9799693 0.35945,-1.27909682 1.40653,-1.17557085 2.78933,-1.17279228 0.77514,0.001558 1.49525,0.25624348 1.85209,0.65054108 0.77322,0.8543992 0.75451,1.8402024 -0.0335,1.7668039 -0.33955,-0.031626 -1.49049,-0.1506884 -2.55764,-0.2645834 z m 1.41111,-1.0890262 c -0.70718,-0.4570179 -2.92829,-0.4570179 -2.64583,0 0.11991,0.1940278 0.88334,0.3503469 1.69651,0.3473758 1.08455,-0.00396 1.33749,-0.096518 0.94932,-0.3473758 z m 17.99167,0.1763889 c -62.52988,-34.3958352 -62.52988,-34.3958352 0,0 z m -24.23609,-14.9335972 c -0.70279,-0.712541 -1.32293,-0.796562 -2.04586,-1.47057 -0.35118,-0.388056 -0.77548,-0.883383 -0.59989,-0.886354 0.6196,-0.01059 -1.20522,-0.675128 1.30545,-0.338702 2.20075,0.294897 3.09215,0.710203 3.09215,1.560848 0,0.36506 0.23409,0.632638 0.46302,0.70895 0.5588,0.186265 -0.0468,1.424702 -0.68131,1.424702 -0.27481,0 -1.0088,-0.752011 -1.53356,-0.998874 z m 1.64639,0.259007 c 0.52105,-0.355896 -0.97294,-2.171052 -1.8485,-2.444839 -0.54114,-0.169214 -1.53278,-0.201253 -1.53278,-0.104244 0,0.09701 0.22631,0.866214 0.81951,1.123525 0.32566,0.141263 2.03563,1.784931 2.56177,1.425558 z"
         id="path2-1"
         transform="translate(230.80487,32.631947)" /></g></g></g></g>
	</g>
</svg>
