<?xml version="1.0" encoding="UTF-8" standalone="no"?>
<svg
   version="1.1"
   id="Layer_1"
   x="0px"
   y="0px"
   width="199.9px"
   height="90.8px"
   viewBox="-859 495.2 199.9 90.8"
   style="enable-background:new -859 495.2 199.9 90.8;"
   xml:space="preserve"
   xmlns:xlink="http://www.w3.org/1999/xlink"
   xmlns="http://www.w3.org/2000/svg"
   xmlns:svg="http://www.w3.org/2000/svg"><defs
   id="defs5"><linearGradient
     id="linearGradient8"><stop
       style="stop-color:#f607f8;stop-opacity:1;"
       offset="0.51327455"
       id="stop6" /><stop
       style="stop-color:#fb0686;stop-opacity:1;"
       offset="0.66876382"
       id="stop7" /><stop
       style="stop-color:#b3035f;stop-opacity:1;"
       offset="0.85257751"
       id="stop8" /></linearGradient><linearGradient
     id="linearGradient2"><stop
       style="stop-color:#f607f8;stop-opacity:1;"
       offset="0.50364268"
       id="stop1" /><stop
       style="stop-color:#fb0686;stop-opacity:1;"
       offset="0.75063497"
       id="stop3" /><stop
       style="stop-color:#b3035f;stop-opacity:1;"
       offset="0.91999692"
       id="stop2" /></linearGradient><clipPath
     clipPathUnits="userSpaceOnUse"
     id="clipPath60"><g
       id="g63"
       style="display:inline;stroke-width:3.22792;stroke-dasharray:none"
       transform="matrix(1.1857763,0,0,1.1857763,-88.855608,-20.011369)"><path
         style="display:inline;opacity:1;fill:#df282a;fill-opacity:1;stroke:#070707;stroke-width:3.22792;stroke-linecap:round;stroke-linejoin:miter;stroke-dasharray:none;stroke-opacity:1"
         d="m 84.006619,92.060054 c 0,0 6.685086,-1.184941 13.201065,-1.757892 2.886226,-0.253787 5.808346,-0.185417 7.983886,-0.185245 1.84913,1.46e-4 5.49848,-0.136886 7.92464,0.05877 6.8725,0.554246 13.23475,1.885385 13.23475,1.885385 -3.0898,7.940998 -9.26755,23.818218 -9.26755,23.818218 -7.93797,-0.003 -23.809138,-0.008 -23.809138,-0.008 z"
         id="path60"
         transform="translate(-25.596249,-58.176771)" /><path
         style="display:inline;opacity:1;fill:#df282a;fill-opacity:1;stroke:#070707;stroke-width:3.22792;stroke-linecap:butt;stroke-linejoin:miter;stroke-miterlimit:10;stroke-dasharray:none;stroke-opacity:1"
         d="m 89.306805,122.49465 c -14.239177,5.24529 -42.708989,15.73273 -42.708989,15.73273 0,0 30.363087,23.73312 32.936393,26.92412 2.573307,3.19101 11.336485,38.75858 13.327117,46.01661 -0.0442,-0.82733 -3.199069,-52.19617 -3.199069,-52.19617 0,0 -9.262604,-1.94658 -11.356833,-3.44964 -2.09423,-1.50306 -9.227067,-13.20387 -9.227067,-13.20387 0,0 -0.643758,-1.86422 0.160031,-2.61191 0.803789,-0.74769 2.856081,0.31073 2.856081,0.31073 5.738593,3.65966 17.212336,10.97677 17.212336,10.97677 z m 31.684775,0 c 17.40501,6.41149 42.70898,15.73273 42.70898,15.73273 0,0 -30.36308,23.73312 -32.93639,26.92412 -2.57331,3.19101 -11.33648,38.75858 -13.32712,46.01661 0.0442,-0.82733 3.19907,-52.19617 3.19907,-52.19617 0,0 9.26261,-1.94658 11.35684,-3.44964 2.09423,-1.50306 9.22706,-13.20387 9.22706,-13.20387 0,0 0.64376,-1.86422 -0.16003,-2.61191 -0.80379,-0.74769 -2.85608,0.31073 -2.85608,0.31073 -5.73859,3.65966 -17.21234,10.97677 -17.21234,10.97677 z"
         id="path61"
         transform="translate(-25.596249,-58.176771)" /><path
         style="opacity:1;fill:#df282a;fill-opacity:1;stroke:#070707;stroke-width:3.22792;stroke-linecap:butt;stroke-linejoin:miter;stroke-miterlimit:10;stroke-dasharray:none;stroke-opacity:1;paint-order:normal"
         d="m 94.571126,121.18596 c 0,0 3.354882,53.28051 4.003846,56.86448 0.648964,3.58397 6.606078,38.3637 6.606078,38.3637 0,0 6.21606,-34.66715 6.61976,-38.38112 0.4037,-3.71397 3.91893,-56.85919 3.91893,-56.85919 z"
         id="path62"
         transform="translate(-25.596249,-58.176771)" /><path
         style="display:inline;opacity:1;fill:#df282a;fill-opacity:1;stroke:#070707;stroke-width:3.22792;stroke-dasharray:none;stroke-opacity:1"
         d="m 87.979333,117.16945 c -14.130146,5.10725 -42.381961,15.31869 -42.381961,15.31869 0,0 8.221827,-16.78195 9.160042,-21.31385 0.195862,-2.08005 -1.120381,-18.00459 -2.112848,-25.442959 -0.992468,-7.43837 -2.623564,-23.529755 -2.623564,-23.529755 0,0 25.810848,25.705231 28.061006,30.652627 2.250158,4.947396 9.897325,24.315247 9.897325,24.315247 z m 34.150597,0 c 14.13015,5.10725 42.38196,15.31869 42.38196,15.31869 0,0 -8.22183,-16.78195 -9.16004,-21.31385 -0.19587,-2.08005 1.12038,-18.00459 2.11284,-25.442959 0.99247,-7.43837 2.62357,-23.529755 2.62357,-23.529755 0,0 -25.81085,25.705231 -28.06101,30.652627 -2.25016,4.947396 -9.89732,24.315247 -9.89732,24.315247 z"
         id="path63"
         transform="translate(-25.596249,-58.176771)" /></g></clipPath><linearGradient
     xlink:href="#linearGradient8"
     id="linearGradient75"
     x1="79.521202"
     y1="62.700893"
     x2="79.395554"
     y2="140.39613"
     gradientUnits="userSpaceOnUse" /><linearGradient
     xlink:href="#linearGradient2"
     id="linearGradient78"
     gradientUnits="userSpaceOnUse"
     x1="79.863281"
     y1="106.07281"
     x2="79.902023"
     y2="204.93137" /><linearGradient
     xlink:href="#linearGradient2"
     id="linearGradient79"
     gradientUnits="userSpaceOnUse"
     x1="79.334114"
     y1="16.379063"
     x2="79.76973"
     y2="185.4845" /><linearGradient
     xlink:href="#linearGradient8"
     id="linearGradient80"
     gradientUnits="userSpaceOnUse"
     x1="79.334114"
     y1="16.379063"
     x2="79.76973"
     y2="185.4845" /><linearGradient
     xlink:href="#linearGradient2"
     id="linearGradient12"
     gradientUnits="userSpaceOnUse"
     x1="79.334114"
     y1="16.379063"
     x2="79.76973"
     y2="185.4845" /></defs>
	<style
   type="text/css"
   id="style1">
		.st0{fill:#8be9fd;}
		.st1{fill:#69AFBE;}
		.st2{opacity:8.000000e-002;}
	</style>
	<g
   id="g3">
		<g
   id="g2">
			<path
   class="st0"
   d="M-659.1,586c0,0-32.7-3.2-50.6-3.2c-17.9,0-48.3,2.4-48.3,2.4s3.1-44.7,4.8-52c1.6-7.3,7.7-21.3,16.9-27.9       c9.2-6.7,12-10.1,22.8-10.1s25.4,6.4,34.6,21.4C-669.8,531.6-659.1,586-659.1,586z"
   id="path1"
   style="fill:#12dfeb;fill-opacity:1" /><path
   class="st0"
   d="m -669.3054,582.7155 c 0,0 -22.4946,0.0845 -40.3946,0.0845 -17.9,0 -38.68112,-1.70562 -38.68112,-1.70562 0,0 -3.14228,-41.00488 0.63573,-51.94134 3.778,-10.93647 13.35078,-27.27536 32.11136,-30.13062 18.76058,-2.85526 30.90256,15.01019 35.69599,26.97608 4.79343,11.9659 10.63264,56.717 10.63264,56.717 z"
   id="path12"
   style="fill:#fdf7fa;fill-opacity:1" />
			<path
   class="st1"
   d="M-757.5,578.4c0,0,26.1-4.4,49-4.4c22.8,0,47.9,4.4,47.9,4.4c1,4.7,1.6,7.6,1.6,7.6s-32.7-3.2-50.6-3.2       s-48.3,2.4-48.3,2.4S-757.9,582.5-757.5,578.4z"
   id="path2"
   style="fill:#39bcc4;fill-opacity:1" />
		</g><g
   id="g6"
   transform="matrix(0.6026813,0,0,0.6026813,-818.16445,657.32751)"
   style="enable-background:new -859 495.2 199.9 90.8"><g
     id="g99"
     style="display:inline"
     transform="matrix(0.5958756,0,0,0.5958756,138.47777,-242.79771)"><g
       id="g84"
       style="display:inline;fill:url(#linearGradient75);stroke-width:3.22792;stroke-dasharray:none"
       transform="translate(-16.795444,0.30577409)"><path
         style="display:inline;opacity:1;fill:url(#linearGradient78);stroke:#070707;stroke-width:3.22792;stroke-linecap:round;stroke-linejoin:miter;stroke-dasharray:none;stroke-opacity:1"
         d="m 84.00662,92.060053 c 0,0 6.685086,-1.184941 13.201065,-1.757892 2.886225,-0.253787 5.808345,-0.185417 7.983885,-0.185245 1.84913,1.46e-4 5.49848,-0.136886 7.92464,0.05877 6.8725,0.554246 13.23475,1.885385 13.23475,1.885385 -3.0898,7.940999 -9.26755,23.818219 -9.26755,23.818219 -7.93797,-0.003 -23.809137,-0.008 -23.809137,-0.008 -3.089218,-7.93708 -6.178435,-15.874158 -9.267653,-23.811237 z"
         id="path81"
         transform="translate(-25.596249,-58.176771)" /><path
         style="display:inline;opacity:1;fill:url(#linearGradient12);stroke:#070707;stroke-width:3.22792;stroke-linecap:butt;stroke-linejoin:miter;stroke-miterlimit:10;stroke-dasharray:none;stroke-opacity:1"
         d="m 89.306806,122.49465 c -14.239177,5.24529 -42.70899,15.73273 -42.70899,15.73273 0,0 30.363088,23.73312 32.936394,26.92412 2.573307,3.19101 11.336485,38.75858 13.327117,46.01661 -0.0442,-0.82733 -3.199069,-52.19617 -3.199069,-52.19617 0,0 -9.262604,-1.94658 -11.356833,-3.44964 -2.09423,-1.50306 -9.227067,-13.20387 -9.227067,-13.20387 0,0 -0.643758,-1.86422 0.160031,-2.61191 0.803789,-0.74769 2.856081,0.31073 2.856081,0.31073 5.738593,3.65965 17.212336,10.97677 17.212336,10.97677 0,-9.49979 0,-18.99958 0,-28.49937 z m 31.684774,0 c 14.23918,5.24529 42.70898,15.73273 42.70898,15.73273 0,0 -30.36308,23.73312 -32.93639,26.92412 -2.57331,3.19101 -11.33648,38.75858 -13.32712,46.01661 0.0442,-0.82733 3.19907,-52.19617 3.19907,-52.19617 0,0 9.26261,-1.94658 11.35684,-3.44964 2.09423,-1.50306 9.22706,-13.20387 9.22706,-13.20387 0,0 0.64376,-1.86422 -0.16003,-2.61191 -0.80379,-0.74769 -2.85608,0.31073 -2.85608,0.31073 -5.73859,3.65965 -17.21234,10.97677 -17.21234,10.97677 1e-5,-9.49979 1e-5,-18.99958 1e-5,-28.49937 z"
         id="path82"
         transform="translate(-25.596249,-58.176771)" /><path
         style="opacity:1;fill:url(#linearGradient80);stroke:#070707;stroke-width:3.22792;stroke-linecap:butt;stroke-linejoin:miter;stroke-miterlimit:10;stroke-dasharray:none;stroke-opacity:1;paint-order:normal"
         d="m 94.571127,121.18596 c 0,0 3.354882,53.28051 4.003846,56.86448 0.648964,3.58397 6.606077,38.3637 6.606077,38.3637 0,0 6.21606,-34.66715 6.61976,-38.38112 0.4037,-3.71397 3.91893,-56.85919 3.91893,-56.85919 -7.04954,0.004 -14.09907,0.008 -21.148613,0.0121 z"
         id="path83"
         transform="translate(-25.596249,-58.176771)" /><path
         style="display:inline;opacity:1;fill:url(#linearGradient79);stroke:#070707;stroke-width:3.22792;stroke-dasharray:none;stroke-opacity:1"
         d="m 87.979334,117.16945 c -14.130146,5.10725 -42.381962,15.31869 -42.381962,15.31869 0,0 8.221827,-16.78195 9.160042,-21.31385 0.195862,-2.08005 -1.120381,-18.004591 -2.112848,-25.442959 -0.992468,-7.43837 -2.623564,-23.529755 -2.623564,-23.529755 0,0 25.810849,25.70523 28.061007,30.652626 2.250158,4.947396 9.897325,24.315248 9.897325,24.315248 z m 34.150596,0 c 14.13015,5.10725 42.38196,15.31869 42.38196,15.31869 0,0 -8.22183,-16.78195 -9.16004,-21.31385 -0.19587,-2.08005 1.12038,-18.004591 2.11284,-25.442959 0.99247,-7.43837 2.62357,-23.529755 2.62357,-23.529755 0,0 -25.81085,25.70523 -28.06101,30.652626 -2.25016,4.947396 -9.89732,24.315248 -9.89732,24.315248 z"
         id="path84"
         transform="translate(-25.596249,-58.176771)" /></g><g
       id="g98"
       style="display:inline;stroke-width:3.22792;stroke-dasharray:none"
       transform="translate(-16.795444,0.30577409)"><path
         style="display:inline;opacity:1;fill:#df282a;fill-opacity:0;stroke:#070707;stroke-width:3.22792;stroke-linecap:round;stroke-linejoin:miter;stroke-dasharray:none;stroke-opacity:1"
         d="m 84.00662,92.060053 c 0,0 6.685086,-1.184941 13.201065,-1.757892 2.886225,-0.253787 5.808345,-0.185417 7.983885,-0.185245 1.84913,1.46e-4 5.49848,-0.136886 7.92464,0.05877 6.8725,0.554246 13.23475,1.885385 13.23475,1.885385 -3.0898,7.940999 -9.26755,23.818219 -9.26755,23.818219 -7.93797,-0.003 -23.809137,-0.008 -23.809137,-0.008 -3.089218,-7.93708 -6.178435,-15.874158 -9.267653,-23.811237 z"
         id="path95"
         transform="translate(-25.596249,-58.176771)" /><path
         style="display:inline;opacity:1;fill:#df282a;fill-opacity:0;stroke:#070707;stroke-width:3.22792;stroke-linecap:butt;stroke-linejoin:miter;stroke-miterlimit:10;stroke-dasharray:none;stroke-opacity:1"
         d="m 89.306806,122.49465 c -14.239177,5.24529 -42.70899,15.73273 -42.70899,15.73273 0,0 30.363088,23.73312 32.936394,26.92412 2.573307,3.19101 11.336485,38.75858 13.327117,46.01661 -0.0442,-0.82733 -3.199069,-52.19617 -3.199069,-52.19617 0,0 -9.262604,-1.94658 -11.356833,-3.44964 -2.09423,-1.50306 -9.227067,-13.20387 -9.227067,-13.20387 0,0 -0.643758,-1.86422 0.160031,-2.61191 0.803789,-0.74769 2.856081,0.31073 2.856081,0.31073 5.738593,3.65965 17.212336,10.97677 17.212336,10.97677 0,-9.49979 0,-18.99958 0,-28.49937 z m 31.684774,0 c 14.23918,5.24529 42.70898,15.73273 42.70898,15.73273 0,0 -30.36308,23.73312 -32.93639,26.92412 -2.57331,3.19101 -11.33648,38.75858 -13.32712,46.01661 0.0442,-0.82733 3.19907,-52.19617 3.19907,-52.19617 0,0 9.26261,-1.94658 11.35684,-3.44964 2.09423,-1.50306 9.22706,-13.20387 9.22706,-13.20387 0,0 0.64376,-1.86422 -0.16003,-2.61191 -0.80379,-0.74769 -2.85608,0.31073 -2.85608,0.31073 -5.73859,3.65965 -17.21234,10.97677 -17.21234,10.97677 1e-5,-9.49979 1e-5,-18.99958 1e-5,-28.49937 z"
         id="path96"
         transform="translate(-25.596249,-58.176771)" /><path
         style="opacity:1;fill:#df282a;fill-opacity:0;stroke:#070707;stroke-width:3.22792;stroke-linecap:butt;stroke-linejoin:miter;stroke-miterlimit:10;stroke-dasharray:none;stroke-opacity:1;paint-order:normal"
         d="m 94.571127,121.18596 c 0,0 3.354882,53.28051 4.003846,56.86448 0.648964,3.58397 6.606077,38.3637 6.606077,38.3637 0,0 6.21606,-34.66715 6.61976,-38.38112 0.4037,-3.71397 3.91893,-56.85919 3.91893,-56.85919 -7.04954,0.004 -14.09907,0.008 -21.148613,0.0121 z"
         id="path97"
         transform="translate(-25.596249,-58.176771)" /><path
         style="display:inline;opacity:1;fill:#df282a;fill-opacity:0;stroke:#070707;stroke-width:3.22792;stroke-dasharray:none;stroke-opacity:1"
         d="m 87.979334,117.16945 c -14.130146,5.10725 -42.381962,15.31869 -42.381962,15.31869 0,0 8.221827,-16.78195 9.160042,-21.31385 0.195862,-2.08005 -1.120381,-18.004591 -2.112848,-25.442959 -0.992468,-7.43837 -2.623564,-23.529755 -2.623564,-23.529755 0,0 25.810849,25.70523 28.061007,30.652626 2.250158,4.947396 9.897325,24.315248 9.897325,24.315248 z m 34.150596,0 c 14.13015,5.10725 42.38196,15.31869 42.38196,15.31869 0,0 -8.22183,-16.78195 -9.16004,-21.31385 -0.19587,-2.08005 1.12038,-18.004591 2.11284,-25.442959 0.99247,-7.43837 2.62357,-23.529755 2.62357,-23.529755 0,0 -25.81085,25.70523 -28.06101,30.652626 -2.25016,4.947396 -9.89732,24.315248 -9.89732,24.315248 z"
         id="path98"
         transform="translate(-25.596249,-58.176771)" /></g></g></g>
		<!-- R2 text -->
		<!--
		<g class="st2">
		<g>
		<path d="M-707.5,560.9c-2.1,1.7-3.2,2.6-3.2,2.6c-1.2,1.2-1.9,2.7-2,4.5h9.8v-2.6h-6.2c0.3-0.5,1-1.2,2.1-1.9
		c1.4-0.9,2.3-1.6,2.7-2.1c0.9-1,1.3-2.1,1.3-3.3c0-1.4-0.5-2.5-1.4-3.3c-0.9-0.8-2.1-1.2-3.5-1.2c-3.1,0-4.7,1.7-4.7,5h2.7
		c0-1.8,0.7-2.7,2.1-2.7c1.3,0,2,0.7,2,2.1C-705.8,559.1-706.4,560-707.5,560.9z"/>
		</g>
		<path d="M-725.1,562.4h3c1.5,0,2.3,0.6,2.4,1.9c0.1,1.2,0.2,2.5,0.3,3.8h3.3v-0.4c-0.5-0.2-0.7-0.7-0.7-1.5c0-0.2,0-0.4,0.1-0.8
		v-0.7c0-1.7-0.6-2.9-1.8-3.5c1.4-0.5,2.2-1.6,2.2-3.4c0-1.3-0.4-2.3-1.3-3c-0.8-0.7-1.9-1-3.2-1h-7.3V568h3V562.4z M-725.1,556.2
		h3.7c1.4,0,2.1,0.6,2.1,1.9c0,1.3-0.8,1.9-2.3,1.9h-3.5V556.2z"/>
		</g>
		-->
	</g>
	<g
   id="g5">
		<g
   id="g4">
			<path
   class="st0"
   d="M-859,586c0,0,32.7-3.2,50.6-3.2c17.9,0,48.3,2.4,48.3,2.4s-3.1-44.7-4.8-52c-1.6-7.3-7.7-21.3-16.9-27.9       s-12-10.1-22.8-10.1c-10.8,0-25.4,6.4-34.6,21.4C-848.3,531.6-859,586-859,586z"
   id="path3"
   style="fill:#12dfeb;fill-opacity:1" />
			<path
   class="st0"
   d="m -769.01333,581.19055 c 0,0 -16.16021,0.67102 -34.06021,0.67102 -17.9,0 -45.01551,-1.82292 -45.01551,-1.82292 0,0 5.53818,-41.4741 9.31619,-52.41056 3.778,-10.93647 12.29505,-24.57738 31.05563,-27.43264 18.76058,-2.85526 29.72952,15.47941 34.52295,27.4453 4.79343,11.9659 4.18095,53.5498 4.18095,53.5498 z"
   id="path13"
   style="fill:#fdf7fa;fill-opacity:1" /><path
   class="st1"
   d="M-760.6,578.4c0,0-26.1-4.4-49-4.4c-22.8,0-47.9,4.4-47.9,4.4c-1,4.7-1.6,7.6-1.6,7.6s32.7-3.2,50.6-3.2       s48.3,2.4,48.3,2.4S-760.2,582.5-760.6,578.4z"
   id="path4"
   style="fill:#39bcc4;fill-opacity:1" />
		</g>
		<!-- L2 text -->
		<!--
		<g class="st2">
		<g>
		<path d="M-794.5,560.9c-2.1,1.7-3.2,2.6-3.2,2.6c-1.2,1.2-1.9,2.7-2,4.5h9.8v-2.6h-6.2c0.3-0.5,1-1.2,2.1-1.9
		c1.4-0.9,2.3-1.6,2.7-2.1c0.9-1,1.3-2.1,1.3-3.3c0-1.4-0.5-2.5-1.4-3.3c-0.9-0.8-2.1-1.2-3.5-1.2c-3.1,0-4.7,1.7-4.7,5h2.7
		c0-1.8,0.7-2.7,2.1-2.7c1.3,0,2,0.7,2,2.1C-792.8,559.1-793.3,560-794.5,560.9z"/>
		</g>
		<polygon points="-803,565.4 -810.1,565.4 -810.1,553.7 -813.1,553.7 -813.1,568 -803,568     "/>
		</g>
		-->
	</g>
</svg>
